<?xml version="1.0" encoding="UTF-8" standalone="no"?>
<!DOCTYPE svg PUBLIC "-//W3C//DTD SVG 1.1//EN"
 "http://www.w3.org/Graphics/SVG/1.1/DTD/svg11.dtd">
<!-- Generated by graphviz version 15.0.0 (20260523.1842)
 -->
<!-- Title: /Users/vb262523/Codes/apfelxx/inc/apfel/dglapbuilderqcdqed.h Pages: 1 -->
<svg width="762pt" height="496pt"
 viewBox="0.00 0.00 762.00 496.00" xmlns="http://www.w3.org/2000/svg" xmlns:xlink="http://www.w3.org/1999/xlink">
<g id="graph0" class="graph" transform="scale(1 1) rotate(0) translate(4 491.5)">
<title>/Users/vb262523/Codes/apfelxx/inc/apfel/dglapbuilderqcdqed.h</title>
<!-- Node1 -->
<g id="Node000001" class="node">
<title>Node1</title>
<g id="a_Node000001"><a xlink:title=" ">
<polygon fill="#999999" stroke="#666666" points="478.25,-487.5 253.75,-487.5 253.75,-454 478.25,-454 478.25,-487.5"/>
<text xml:space="preserve" text-anchor="start" x="261.75" y="-472.1" font-family="Helvetica,sans-Serif" font-size="12.00">/Users/vb262523/Codes</text>
<text xml:space="preserve" text-anchor="middle" x="366" y="-459.35" font-family="Helvetica,sans-Serif" font-size="12.00">/apfelxx/inc/apfel/dglapbuilderqcdqed.h</text>
</a>
</g>
</g>
<!-- Node2 -->
<g id="Node000002" class="node">
<title>Node2</title>
<g id="a_Node000002"><a xlink:href="grid_8h.html" target="_top" xlink:title=" ">
<polygon fill="white" stroke="#666666" points="684.62,-134.25 609.38,-134.25 609.38,-113.5 684.62,-113.5 684.62,-134.25"/>
<text xml:space="preserve" text-anchor="middle" x="647" y="-118.85" font-family="Helvetica,sans-Serif" font-size="12.00">apfel/grid.h</text>
</a>
</g>
</g>
<!-- Node1&#45;&gt;Node2 -->
<g id="edge1_Node000001_Node000002" class="edge">
<title>Node1&#45;&gt;Node2</title>
<g id="a_edge1_Node000001_Node000002"><a xlink:title=" ">
<path fill="none" stroke="#63b8ff" d="M478.47,-454.56C583.11,-437.19 723,-404.17 723,-351.88 723,-351.88 723,-351.88 723,-236.38 723,-197.46 691,-162.1 668.53,-142.07"/>
<polygon fill="#63b8ff" stroke="#63b8ff" points="670.92,-139.51 661.04,-135.67 666.37,-144.83 670.92,-139.51"/>
</a>
</g>
</g>
<!-- Node7 -->
<g id="Node000007" class="node">
<title>Node7</title>
<g id="a_Node000007"><a xlink:href="dglap_8h.html" target="_top" xlink:title=" ">
<polygon fill="white" stroke="#666666" points="408.5,-418 323.5,-418 323.5,-397.25 408.5,-397.25 408.5,-418"/>
<text xml:space="preserve" text-anchor="middle" x="366" y="-402.6" font-family="Helvetica,sans-Serif" font-size="12.00">apfel/dglap.h</text>
</a>
</g>
</g>
<!-- Node1&#45;&gt;Node7 -->
<g id="edge6_Node000001_Node000007" class="edge">
<title>Node1&#45;&gt;Node7</title>
<g id="a_edge6_Node000001_Node000007"><a xlink:title=" ">
<path fill="none" stroke="#63b8ff" d="M366,-453.69C366,-446.35 366,-437.57 366,-429.71"/>
<polygon fill="#63b8ff" stroke="#63b8ff" points="369.5,-429.98 366,-419.98 362.5,-429.98 369.5,-429.98"/>
</a>
</g>
</g>
<!-- Node24 -->
<g id="Node000024" class="node">
<title>Node24</title>
<g id="a_Node000024"><a xlink:href="constants_8h.html" target="_top" xlink:title=" ">
<polygon fill="white" stroke="#666666" points="106,-191 0,-191 0,-170.25 106,-170.25 106,-191"/>
<text xml:space="preserve" text-anchor="middle" x="53" y="-175.6" font-family="Helvetica,sans-Serif" font-size="12.00">apfel/constants.h</text>
</a>
</g>
</g>
<!-- Node1&#45;&gt;Node24 -->
<g id="edge32_Node000001_Node000024" class="edge">
<title>Node1&#45;&gt;Node24</title>
<g id="a_edge32_Node000001_Node000024"><a xlink:title=" ">
<path fill="none" stroke="#63b8ff" d="M253.32,-465.39C175.89,-455.62 87,-427.86 87,-351.88 87,-351.88 87,-351.88 87,-293.12 87,-260.02 73.11,-223.69 63.09,-201.78"/>
<polygon fill="#63b8ff" stroke="#63b8ff" points="66.28,-200.34 58.82,-192.83 59.97,-203.36 66.28,-200.34"/>
</a>
</g>
</g>
<!-- Node3 -->
<g id="Node000003" class="node">
<title>Node3</title>
<g id="a_Node000003"><a xlink:href="subgrid_8h.html" target="_top" xlink:title=" ">
<polygon fill="white" stroke="#666666" points="733.38,-77.5 638.62,-77.5 638.62,-56.75 733.38,-56.75 733.38,-77.5"/>
<text xml:space="preserve" text-anchor="middle" x="686" y="-62.1" font-family="Helvetica,sans-Serif" font-size="12.00">apfel/subgrid.h</text>
</a>
</g>
</g>
<!-- Node2&#45;&gt;Node3 -->
<g id="edge2_Node000002_Node000003" class="edge">
<title>Node2&#45;&gt;Node3</title>
<g id="a_edge2_Node000002_Node000003"><a xlink:title=" ">
<path fill="none" stroke="#63b8ff" d="M653.97,-113.09C659.13,-105.85 666.32,-95.76 672.57,-86.97"/>
<polygon fill="#63b8ff" stroke="#63b8ff" points="675.26,-89.24 678.21,-79.06 669.56,-85.18 675.26,-89.24"/>
</a>
</g>
</g>
<!-- Node6 -->
<g id="Node000006" class="node">
<title>Node6</title>
<g id="a_Node000006"><a xlink:title=" ">
<polygon fill="#e0e0e0" stroke="#999999" points="620.38,-77.5 561.62,-77.5 561.62,-56.75 620.38,-56.75 620.38,-77.5"/>
<text xml:space="preserve" text-anchor="middle" x="591" y="-62.1" font-family="Helvetica,sans-Serif" font-size="12.00">memory</text>
</a>
</g>
</g>
<!-- Node2&#45;&gt;Node6 -->
<g id="edge5_Node000002_Node000006" class="edge">
<title>Node2&#45;&gt;Node6</title>
<g id="a_edge5_Node000002_Node000006"><a xlink:title=" ">
<path fill="none" stroke="#63b8ff" d="M636.99,-113.09C629.26,-105.53 618.37,-94.89 609.13,-85.85"/>
<polygon fill="#63b8ff" stroke="#63b8ff" points="611.6,-83.37 602.01,-78.89 606.71,-88.38 611.6,-83.37"/>
</a>
</g>
</g>
<!-- Node4 -->
<g id="Node000004" class="node">
<title>Node4</title>
<g id="a_Node000004"><a xlink:title=" ">
<polygon fill="#e0e0e0" stroke="#999999" points="419.12,-20.75 370.88,-20.75 370.88,0 419.12,0 419.12,-20.75"/>
<text xml:space="preserve" text-anchor="middle" x="395" y="-5.35" font-family="Helvetica,sans-Serif" font-size="12.00">vector</text>
</a>
</g>
</g>
<!-- Node3&#45;&gt;Node4 -->
<g id="edge3_Node000003_Node000004" class="edge">
<title>Node3&#45;&gt;Node4</title>
<g id="a_edge3_Node000003_Node000004"><a xlink:title=" ">
<path fill="none" stroke="#63b8ff" d="M638.27,-57.15C579.96,-46.17 482.65,-27.87 430.53,-18.06"/>
<polygon fill="#63b8ff" stroke="#63b8ff" points="431.48,-14.68 421,-16.27 430.18,-21.56 431.48,-14.68"/>
</a>
</g>
</g>
<!-- Node5 -->
<g id="Node000005" class="node">
<title>Node5</title>
<g id="a_Node000005"><a xlink:title=" ">
<polygon fill="#e0e0e0" stroke="#999999" points="753.88,-20.75 692.12,-20.75 692.12,0 753.88,0 753.88,-20.75"/>
<text xml:space="preserve" text-anchor="middle" x="723" y="-5.35" font-family="Helvetica,sans-Serif" font-size="12.00">iostream</text>
</a>
</g>
</g>
<!-- Node3&#45;&gt;Node5 -->
<g id="edge4_Node000003_Node000005" class="edge">
<title>Node3&#45;&gt;Node5</title>
<g id="a_edge4_Node000003_Node000005"><a xlink:title=" ">
<path fill="none" stroke="#63b8ff" d="M692.61,-56.34C697.46,-49.17 704.18,-39.23 710.07,-30.51"/>
<polygon fill="#63b8ff" stroke="#63b8ff" points="712.9,-32.58 715.59,-22.33 707.1,-28.66 712.9,-32.58"/>
</a>
</g>
</g>
<!-- Node8 -->
<g id="Node000008" class="node">
<title>Node8</title>
<g id="a_Node000008"><a xlink:href="matchedevolution_8h.html" target="_top" xlink:title=" ">
<polygon fill="white" stroke="#666666" points="273.75,-191 124.25,-191 124.25,-170.25 273.75,-170.25 273.75,-191"/>
<text xml:space="preserve" text-anchor="middle" x="199" y="-175.6" font-family="Helvetica,sans-Serif" font-size="12.00">apfel/matchedevolution.h</text>
</a>
</g>
</g>
<!-- Node7&#45;&gt;Node8 -->
<g id="edge7_Node000007_Node000008" class="edge">
<title>Node7&#45;&gt;Node8</title>
<g id="a_edge7_Node000007_Node000008"><a xlink:title=" ">
<path fill="none" stroke="#63b8ff" d="M332,-396.85C290.8,-383.16 222.38,-354.23 186,-304.5 165.42,-276.37 165.32,-260.76 174,-227 176.34,-217.9 180.94,-208.67 185.56,-200.93"/>
<polygon fill="#63b8ff" stroke="#63b8ff" points="188.37,-203.03 190.84,-192.72 182.48,-199.23 188.37,-203.03"/>
</a>
</g>
</g>
<!-- Node10 -->
<g id="Node000010" class="node">
<title>Node10</title>
<g id="a_Node000010"><a xlink:href="set_8h.html" target="_top" xlink:title=" ">
<polygon fill="white" stroke="#666666" points="504.38,-361.25 433.62,-361.25 433.62,-340.5 504.38,-340.5 504.38,-361.25"/>
<text xml:space="preserve" text-anchor="middle" x="469" y="-345.85" font-family="Helvetica,sans-Serif" font-size="12.00">apfel/set.h</text>
</a>
</g>
</g>
<!-- Node7&#45;&gt;Node10 -->
<g id="edge10_Node000007_Node000010" class="edge">
<title>Node7&#45;&gt;Node10</title>
<g id="a_edge10_Node000007_Node000010"><a xlink:title=" ">
<path fill="none" stroke="#63b8ff" d="M384.41,-396.84C400.09,-388.51 422.85,-376.41 440.81,-366.86"/>
<polygon fill="#63b8ff" stroke="#63b8ff" points="442.22,-370.07 449.41,-362.29 438.94,-363.89 442.22,-370.07"/>
</a>
</g>
</g>
<!-- Node22 -->
<g id="Node000022" class="node">
<title>Node22</title>
<g id="a_Node000022"><a xlink:href="operator_8h.html" target="_top" xlink:title=" ">
<polygon fill="white" stroke="#666666" points="415.62,-361.25 316.38,-361.25 316.38,-340.5 415.62,-340.5 415.62,-361.25"/>
<text xml:space="preserve" text-anchor="middle" x="366" y="-345.85" font-family="Helvetica,sans-Serif" font-size="12.00">apfel/operator.h</text>
</a>
</g>
</g>
<!-- Node7&#45;&gt;Node22 -->
<g id="edge28_Node000007_Node000022" class="edge">
<title>Node7&#45;&gt;Node22</title>
<g id="a_edge28_Node000007_Node000022"><a xlink:title=" ">
<path fill="none" stroke="#63b8ff" d="M366,-396.84C366,-390.22 366,-381.22 366,-373.02"/>
<polygon fill="#63b8ff" stroke="#63b8ff" points="369.5,-373.09 366,-363.09 362.5,-373.09 369.5,-373.09"/>
</a>
</g>
</g>
<!-- Node8&#45;&gt;Node4 -->
<g id="edge9_Node000008_Node000004" class="edge">
<title>Node8&#45;&gt;Node4</title>
<g id="a_edge9_Node000008_Node000004"><a xlink:title=" ">
<path fill="none" stroke="#63b8ff" d="M209.27,-170.07C223.29,-157.08 249.26,-133.22 272,-113.5 307.35,-82.84 349.5,-48.26 374.15,-28.23"/>
<polygon fill="#63b8ff" stroke="#63b8ff" points="376.25,-31.04 381.81,-22.02 371.84,-25.6 376.25,-31.04"/>
</a>
</g>
</g>
<!-- Node9 -->
<g id="Node000009" class="node">
<title>Node9</title>
<g id="a_Node000009"><a xlink:title=" ">
<polygon fill="#e0e0e0" stroke="#999999" points="200.12,-134.25 151.88,-134.25 151.88,-113.5 200.12,-113.5 200.12,-134.25"/>
<text xml:space="preserve" text-anchor="middle" x="176" y="-118.85" font-family="Helvetica,sans-Serif" font-size="12.00">cmath</text>
</a>
</g>
</g>
<!-- Node8&#45;&gt;Node9 -->
<g id="edge8_Node000008_Node000009" class="edge">
<title>Node8&#45;&gt;Node9</title>
<g id="a_edge8_Node000008_Node000009"><a xlink:title=" ">
<path fill="none" stroke="#63b8ff" d="M194.89,-169.84C192.01,-162.99 188.06,-153.59 184.52,-145.15"/>
<polygon fill="#63b8ff" stroke="#63b8ff" points="187.76,-143.84 180.66,-135.97 181.31,-146.55 187.76,-143.84"/>
</a>
</g>
</g>
<!-- Node11 -->
<g id="Node000011" class="node">
<title>Node11</title>
<g id="a_Node000011"><a xlink:href="convolutionmap_8h.html" target="_top" xlink:title=" ">
<polygon fill="white" stroke="#666666" points="674.88,-304.5 535.12,-304.5 535.12,-283.75 674.88,-283.75 674.88,-304.5"/>
<text xml:space="preserve" text-anchor="middle" x="605" y="-289.1" font-family="Helvetica,sans-Serif" font-size="12.00">apfel/convolutionmap.h</text>
</a>
</g>
</g>
<!-- Node10&#45;&gt;Node11 -->
<g id="edge11_Node000010_Node000011" class="edge">
<title>Node10&#45;&gt;Node11</title>
<g id="a_edge11_Node000010_Node000011"><a xlink:title=" ">
<path fill="none" stroke="#63b8ff" d="M493.31,-340.09C514.78,-331.44 546.32,-318.75 570.41,-309.05"/>
<polygon fill="#63b8ff" stroke="#63b8ff" points="571.52,-312.38 579.49,-305.39 568.91,-305.88 571.52,-312.38"/>
</a>
</g>
</g>
<!-- Node18 -->
<g id="Node000018" class="node">
<title>Node18</title>
<g id="a_Node000018"><a xlink:href="distribution_8h.html" target="_top" xlink:title=" ">
<polygon fill="white" stroke="#666666" points="440.75,-304.5 327.25,-304.5 327.25,-283.75 440.75,-283.75 440.75,-304.5"/>
<text xml:space="preserve" text-anchor="middle" x="384" y="-289.1" font-family="Helvetica,sans-Serif" font-size="12.00">apfel/distribution.h</text>
</a>
</g>
</g>
<!-- Node10&#45;&gt;Node18 -->
<g id="edge20_Node000010_Node000018" class="edge">
<title>Node10&#45;&gt;Node18</title>
<g id="a_edge20_Node000010_Node000018"><a xlink:title=" ">
<path fill="none" stroke="#63b8ff" d="M453.8,-340.09C441.23,-331.99 423.14,-320.33 408.52,-310.92"/>
<polygon fill="#63b8ff" stroke="#63b8ff" points="410.64,-308.12 400.34,-305.65 406.85,-314.01 410.64,-308.12"/>
</a>
</g>
</g>
<!-- Node21 -->
<g id="Node000021" class="node">
<title>Node21</title>
<g id="a_Node000021"><a xlink:title=" ">
<polygon fill="#e0e0e0" stroke="#999999" points="430.88,-247.75 363.12,-247.75 363.12,-227 430.88,-227 430.88,-247.75"/>
<text xml:space="preserve" text-anchor="middle" x="397" y="-232.35" font-family="Helvetica,sans-Serif" font-size="12.00">functional</text>
</a>
</g>
</g>
<!-- Node10&#45;&gt;Node21 -->
<g id="edge27_Node000010_Node000021" class="edge">
<title>Node10&#45;&gt;Node21</title>
<g id="a_edge27_Node000010_Node000021"><a xlink:title=" ">
<path fill="none" stroke="#63b8ff" d="M467.98,-340.18C466.19,-326.62 461.5,-301.64 450,-283.75 442.75,-272.48 431.87,-262.47 421.85,-254.75"/>
<polygon fill="#63b8ff" stroke="#63b8ff" points="424.02,-252 413.88,-248.96 419.91,-257.66 424.02,-252"/>
</a>
</g>
</g>
<!-- Node11&#45;&gt;Node5 -->
<g id="edge19_Node000011_Node000005" class="edge">
<title>Node11&#45;&gt;Node5</title>
<g id="a_edge19_Node000011_Node000005"><a xlink:title=" ">
<path fill="none" stroke="#63b8ff" d="M622.71,-283.35C636.05,-275.26 654.03,-262.68 666,-247.75 717.82,-183.09 724.73,-158.54 742,-77.5 745.35,-61.78 739.93,-44.31 734.03,-31.28"/>
<polygon fill="#63b8ff" stroke="#63b8ff" points="737.23,-29.85 729.61,-22.48 730.97,-32.99 737.23,-29.85"/>
</a>
</g>
</g>
<!-- Node12 -->
<g id="Node000012" class="node">
<title>Node12</title>
<g id="a_Node000012"><a xlink:href="matrix_8h.html" target="_top" xlink:title=" ">
<polygon fill="white" stroke="#666666" points="593.62,-247.75 506.38,-247.75 506.38,-227 593.62,-227 593.62,-247.75"/>
<text xml:space="preserve" text-anchor="middle" x="550" y="-232.35" font-family="Helvetica,sans-Serif" font-size="12.00">apfel/matrix.h</text>
</a>
</g>
</g>
<!-- Node11&#45;&gt;Node12 -->
<g id="edge12_Node000011_Node000012" class="edge">
<title>Node11&#45;&gt;Node12</title>
<g id="a_edge12_Node000011_Node000012"><a xlink:title=" ">
<path fill="none" stroke="#63b8ff" d="M595.17,-283.34C587.58,-275.78 576.88,-265.14 567.8,-256.1"/>
<polygon fill="#63b8ff" stroke="#63b8ff" points="570.38,-253.72 560.82,-249.15 565.44,-258.68 570.38,-253.72"/>
</a>
</g>
</g>
<!-- Node16 -->
<g id="Node000016" class="node">
<title>Node16</title>
<g id="a_Node000016"><a xlink:title=" ">
<polygon fill="#e0e0e0" stroke="#999999" points="488.62,-247.75 449.38,-247.75 449.38,-227 488.62,-227 488.62,-247.75"/>
<text xml:space="preserve" text-anchor="middle" x="469" y="-232.35" font-family="Helvetica,sans-Serif" font-size="12.00">map</text>
</a>
</g>
</g>
<!-- Node11&#45;&gt;Node16 -->
<g id="edge17_Node000011_Node000016" class="edge">
<title>Node11&#45;&gt;Node16</title>
<g id="a_edge17_Node000011_Node000016"><a xlink:title=" ">
<path fill="none" stroke="#63b8ff" d="M580.69,-283.34C558.03,-274.21 524.14,-260.57 499.64,-250.71"/>
<polygon fill="#63b8ff" stroke="#63b8ff" points="501.11,-247.53 490.52,-247.04 498.49,-254.02 501.11,-247.53"/>
</a>
</g>
</g>
<!-- Node17 -->
<g id="Node000017" class="node">
<title>Node17</title>
<g id="a_Node000017"><a xlink:title=" ">
<polygon fill="#e0e0e0" stroke="#999999" points="656.62,-247.75 611.38,-247.75 611.38,-227 656.62,-227 656.62,-247.75"/>
<text xml:space="preserve" text-anchor="middle" x="634" y="-232.35" font-family="Helvetica,sans-Serif" font-size="12.00">string</text>
</a>
</g>
</g>
<!-- Node11&#45;&gt;Node17 -->
<g id="edge18_Node000011_Node000017" class="edge">
<title>Node11&#45;&gt;Node17</title>
<g id="a_edge18_Node000011_Node000017"><a xlink:title=" ">
<path fill="none" stroke="#63b8ff" d="M610.18,-283.34C613.9,-276.33 619.02,-266.66 623.56,-258.08"/>
<polygon fill="#63b8ff" stroke="#63b8ff" points="626.56,-259.89 628.15,-249.42 620.38,-256.61 626.56,-259.89"/>
</a>
</g>
</g>
<!-- Node12&#45;&gt;Node4 -->
<g id="edge13_Node000012_Node000004" class="edge">
<title>Node12&#45;&gt;Node4</title>
<g id="a_edge13_Node000012_Node000004"><a xlink:title=" ">
<path fill="none" stroke="#63b8ff" d="M547.86,-226.95C544.6,-213.7 537.64,-189.09 527,-170.25 494.86,-113.33 441.57,-56.92 413.54,-29.15"/>
<polygon fill="#63b8ff" stroke="#63b8ff" points="416.07,-26.73 406.47,-22.24 411.17,-31.73 416.07,-26.73"/>
</a>
</g>
</g>
<!-- Node13 -->
<g id="Node000013" class="node">
<title>Node13</title>
<g id="a_Node000013"><a xlink:title=" ">
<polygon fill="#e0e0e0" stroke="#999999" points="323.5,-134.25 280.5,-134.25 280.5,-113.5 323.5,-113.5 323.5,-134.25"/>
<text xml:space="preserve" text-anchor="middle" x="302" y="-118.85" font-family="Helvetica,sans-Serif" font-size="12.00">array</text>
</a>
</g>
</g>
<!-- Node12&#45;&gt;Node13 -->
<g id="edge14_Node000012_Node000013" class="edge">
<title>Node12&#45;&gt;Node13</title>
<g id="a_edge14_Node000012_Node000013"><a xlink:title=" ">
<path fill="none" stroke="#63b8ff" d="M506.06,-228.22C440.77,-216.02 325.42,-194.11 322,-191 309.37,-179.54 304.6,-160.41 302.85,-145.67"/>
<polygon fill="#63b8ff" stroke="#63b8ff" points="306.37,-145.79 302.11,-136.09 299.4,-146.33 306.37,-145.79"/>
</a>
</g>
</g>
<!-- Node14 -->
<g id="Node000014" class="node">
<title>Node14</title>
<g id="a_Node000014"><a xlink:title=" ">
<polygon fill="#e0e0e0" stroke="#999999" points="632,-191 574,-191 574,-170.25 632,-170.25 632,-191"/>
<text xml:space="preserve" text-anchor="middle" x="603" y="-175.6" font-family="Helvetica,sans-Serif" font-size="12.00">stddef.h</text>
</a>
</g>
</g>
<!-- Node12&#45;&gt;Node14 -->
<g id="edge15_Node000012_Node000014" class="edge">
<title>Node12&#45;&gt;Node14</title>
<g id="a_edge15_Node000012_Node000014"><a xlink:title=" ">
<path fill="none" stroke="#63b8ff" d="M559.48,-226.59C566.79,-219.03 577.09,-208.39 585.84,-199.35"/>
<polygon fill="#63b8ff" stroke="#63b8ff" points="588.11,-202.04 592.55,-192.42 583.08,-197.17 588.11,-202.04"/>
</a>
</g>
</g>
<!-- Node15 -->
<g id="Node000015" class="node">
<title>Node15</title>
<g id="a_Node000015"><a xlink:title=" ">
<polygon fill="#e0e0e0" stroke="#999999" points="518.12,-191 463.88,-191 463.88,-170.25 518.12,-170.25 518.12,-191"/>
<text xml:space="preserve" text-anchor="middle" x="491" y="-175.6" font-family="Helvetica,sans-Serif" font-size="12.00">cstddef</text>
</a>
</g>
</g>
<!-- Node12&#45;&gt;Node15 -->
<g id="edge16_Node000012_Node000015" class="edge">
<title>Node12&#45;&gt;Node15</title>
<g id="a_edge16_Node000012_Node000015"><a xlink:title=" ">
<path fill="none" stroke="#63b8ff" d="M539.45,-226.59C531.23,-218.96 519.6,-208.17 509.8,-199.07"/>
<polygon fill="#63b8ff" stroke="#63b8ff" points="512.28,-196.59 502.57,-192.36 507.52,-201.73 512.28,-196.59"/>
</a>
</g>
</g>
<!-- Node18&#45;&gt;Node16 -->
<g id="edge25_Node000018_Node000016" class="edge">
<title>Node18&#45;&gt;Node16</title>
<g id="a_edge25_Node000018_Node000016"><a xlink:title=" ">
<path fill="none" stroke="#63b8ff" d="M399.2,-283.34C411.77,-275.24 429.86,-263.58 444.48,-254.17"/>
<polygon fill="#63b8ff" stroke="#63b8ff" points="446.15,-257.26 452.66,-248.9 442.36,-251.37 446.15,-257.26"/>
</a>
</g>
</g>
<!-- Node19 -->
<g id="Node000019" class="node">
<title>Node19</title>
<g id="a_Node000019"><a xlink:href="lagrangeinterpolator_8h.html" target="_top" xlink:title=" ">
<polygon fill="white" stroke="#666666" points="345.12,-247.75 182.88,-247.75 182.88,-227 345.12,-227 345.12,-247.75"/>
<text xml:space="preserve" text-anchor="middle" x="264" y="-232.35" font-family="Helvetica,sans-Serif" font-size="12.00">apfel/lagrangeinterpolator.h</text>
</a>
</g>
</g>
<!-- Node18&#45;&gt;Node19 -->
<g id="edge21_Node000018_Node000019" class="edge">
<title>Node18&#45;&gt;Node19</title>
<g id="a_edge21_Node000018_Node000019"><a xlink:title=" ">
<path fill="none" stroke="#63b8ff" d="M362.55,-283.34C343.95,-274.85 316.78,-262.45 295.67,-252.83"/>
<polygon fill="#63b8ff" stroke="#63b8ff" points="297.2,-249.67 286.64,-248.71 294.29,-256.04 297.2,-249.67"/>
</a>
</g>
</g>
<!-- Node18&#45;&gt;Node21 -->
<g id="edge26_Node000018_Node000021" class="edge">
<title>Node18&#45;&gt;Node21</title>
<g id="a_edge26_Node000018_Node000021"><a xlink:title=" ">
<path fill="none" stroke="#63b8ff" d="M386.32,-283.34C387.91,-276.64 390.08,-267.51 392.05,-259.23"/>
<polygon fill="#63b8ff" stroke="#63b8ff" points="395.44,-260.09 394.35,-249.55 388.63,-258.47 395.44,-260.09"/>
</a>
</g>
</g>
<!-- Node20 -->
<g id="Node000020" class="node">
<title>Node20</title>
<g id="a_Node000020"><a xlink:href="interpolator_8h.html" target="_top" xlink:title=" ">
<polygon fill="white" stroke="#666666" points="445.5,-191 330.5,-191 330.5,-170.25 445.5,-170.25 445.5,-191"/>
<text xml:space="preserve" text-anchor="middle" x="388" y="-175.6" font-family="Helvetica,sans-Serif" font-size="12.00">apfel/interpolator.h</text>
</a>
</g>
</g>
<!-- Node19&#45;&gt;Node20 -->
<g id="edge22_Node000019_Node000020" class="edge">
<title>Node19&#45;&gt;Node20</title>
<g id="a_edge22_Node000019_Node000020"><a xlink:title=" ">
<path fill="none" stroke="#63b8ff" d="M286.17,-226.59C305.48,-218.06 333.72,-205.59 355.57,-195.94"/>
<polygon fill="#63b8ff" stroke="#63b8ff" points="356.9,-199.18 364.64,-191.94 354.08,-192.78 356.9,-199.18"/>
</a>
</g>
</g>
<!-- Node20&#45;&gt;Node2 -->
<g id="edge23_Node000020_Node000002" class="edge">
<title>Node20&#45;&gt;Node2</title>
<g id="a_edge23_Node000020_Node000002"><a xlink:title=" ">
<path fill="none" stroke="#63b8ff" d="M434.6,-169.77C480.75,-160.02 551.13,-145.14 598.07,-135.22"/>
<polygon fill="#63b8ff" stroke="#63b8ff" points="598.64,-138.68 607.7,-133.18 597.19,-131.83 598.64,-138.68"/>
</a>
</g>
</g>
<!-- Node20&#45;&gt;Node13 -->
<g id="edge24_Node000020_Node000013" class="edge">
<title>Node20&#45;&gt;Node13</title>
<g id="a_edge24_Node000020_Node000013"><a xlink:title=" ">
<path fill="none" stroke="#63b8ff" d="M372.62,-169.84C359.91,-161.74 341.6,-150.08 326.81,-140.67"/>
<polygon fill="#63b8ff" stroke="#63b8ff" points="328.83,-137.81 318.52,-135.39 325.07,-143.71 328.83,-137.81"/>
</a>
</g>
</g>
<!-- Node22&#45;&gt;Node12 -->
<g id="edge31_Node000022_Node000012" class="edge">
<title>Node22&#45;&gt;Node12</title>
<g id="a_edge31_Node000022_Node000012"><a xlink:title=" ">
<path fill="none" stroke="#63b8ff" d="M385.29,-340.08C402.49,-331.2 428.25,-317.53 450,-304.5 476.88,-288.39 506.73,-268.36 526.76,-254.59"/>
<polygon fill="#63b8ff" stroke="#63b8ff" points="528.53,-257.62 534.77,-249.06 524.55,-251.86 528.53,-257.62"/>
</a>
</g>
</g>
<!-- Node22&#45;&gt;Node18 -->
<g id="edge30_Node000022_Node000018" class="edge">
<title>Node22&#45;&gt;Node18</title>
<g id="a_edge30_Node000022_Node000018"><a xlink:title=" ">
<path fill="none" stroke="#63b8ff" d="M369.22,-340.09C371.44,-333.31 374.49,-324.05 377.24,-315.69"/>
<polygon fill="#63b8ff" stroke="#63b8ff" points="380.54,-316.86 380.34,-306.27 373.89,-314.67 380.54,-316.86"/>
</a>
</g>
</g>
<!-- Node23 -->
<g id="Node000023" class="node">
<title>Node23</title>
<g id="a_Node000023"><a xlink:href="expression_8h.html" target="_top" xlink:title=" ">
<polygon fill="white" stroke="#666666" points="308.75,-304.5 195.25,-304.5 195.25,-283.75 308.75,-283.75 308.75,-304.5"/>
<text xml:space="preserve" text-anchor="middle" x="252" y="-289.1" font-family="Helvetica,sans-Serif" font-size="12.00">apfel/expression.h</text>
</a>
</g>
</g>
<!-- Node22&#45;&gt;Node23 -->
<g id="edge29_Node000022_Node000023" class="edge">
<title>Node22&#45;&gt;Node23</title>
<g id="a_edge29_Node000022_Node000023"><a xlink:title=" ">
<path fill="none" stroke="#63b8ff" d="M345.62,-340.09C328.03,-331.64 302.37,-319.32 282.37,-309.71"/>
<polygon fill="#63b8ff" stroke="#63b8ff" points="284.1,-306.66 273.57,-305.48 281.07,-312.97 284.1,-306.66"/>
</a>
</g>
</g>
<!-- Node24&#45;&gt;Node4 -->
<g id="edge34_Node000024_Node000004" class="edge">
<title>Node24&#45;&gt;Node4</title>
<g id="a_edge34_Node000024_Node000004"><a xlink:title=" ">
<path fill="none" stroke="#63b8ff" d="M64.3,-169.87C80.77,-156.01 112.7,-130.42 143,-113.5 216.41,-72.5 309.67,-39.11 359.61,-22.59"/>
<polygon fill="#63b8ff" stroke="#63b8ff" points="360.61,-25.95 369.02,-19.52 358.43,-19.3 360.61,-25.95"/>
</a>
</g>
</g>
<!-- Node24&#45;&gt;Node9 -->
<g id="edge33_Node000024_Node000009" class="edge">
<title>Node24&#45;&gt;Node9</title>
<g id="a_edge33_Node000024_Node000009"><a xlink:title=" ">
<path fill="none" stroke="#63b8ff" d="M74.99,-169.84C94.14,-161.31 122.16,-148.84 143.83,-139.19"/>
<polygon fill="#63b8ff" stroke="#63b8ff" points="145.11,-142.46 152.82,-135.19 142.26,-136.06 145.11,-142.46"/>
</a>
</g>
</g>
<!-- Node24&#45;&gt;Node13 -->
<g id="edge35_Node000024_Node000013" class="edge">
<title>Node24&#45;&gt;Node13</title>
<g id="a_edge35_Node000024_Node000013"><a xlink:title=" ">
<path fill="none" stroke="#63b8ff" d="M97.8,-169.77C147.05,-158.94 225.01,-141.8 268.99,-132.13"/>
<polygon fill="#63b8ff" stroke="#63b8ff" points="269.68,-135.56 278.7,-130 268.18,-128.73 269.68,-135.56"/>
</a>
</g>
</g>
</g>
</svg>
