<?xml version="1.0" encoding="UTF-8" standalone="no"?>
<!DOCTYPE svg PUBLIC "-//W3C//DTD SVG 1.1//EN"
 "http://www.w3.org/Graphics/SVG/1.1/DTD/svg11.dtd">
<!-- Generated by graphviz version 15.0.0 (20260523.1842)
 -->
<!-- Title: /Users/vb262523/Codes/apfelxx/inc/apfel/dglapbuilderqcdqed.h Pages: 1 -->
<svg width="293pt" height="181pt"
 viewBox="0.00 0.00 293.00 181.00" xmlns="http://www.w3.org/2000/svg" xmlns:xlink="http://www.w3.org/1999/xlink">
<g id="graph0" class="graph" transform="scale(1 1) rotate(0) translate(4 176.5)">
<title>/Users/vb262523/Codes/apfelxx/inc/apfel/dglapbuilderqcdqed.h</title>
<!-- Node1 -->
<g id="Node000001" class="node">
<title>Node1</title>
<g id="a_Node000001"><a xlink:title=" ">
<polygon fill="#999999" stroke="#666666" points="224.5,-172.5 0,-172.5 0,-139 224.5,-139 224.5,-172.5"/>
<text xml:space="preserve" text-anchor="start" x="8" y="-157.1" font-family="Helvetica,sans-Serif" font-size="12.00">/Users/vb262523/Codes</text>
<text xml:space="preserve" text-anchor="middle" x="112.25" y="-144.35" font-family="Helvetica,sans-Serif" font-size="12.00">/apfelxx/inc/apfel/dglapbuilderqcdqed.h</text>
</a>
</g>
</g>
<!-- Node2 -->
<g id="Node000002" class="node">
<title>Node2</title>
<g id="a_Node000002"><a xlink:href="apfelxx_8h.html" target="_top" xlink:title=" ">
<polygon fill="white" stroke="#666666" points="190.38,-33.5 34.12,-33.5 34.12,0 190.38,0 190.38,-33.5"/>
<text xml:space="preserve" text-anchor="start" x="42.12" y="-18.1" font-family="Helvetica,sans-Serif" font-size="12.00">/Users/vb262523/Codes</text>
<text xml:space="preserve" text-anchor="middle" x="112.25" y="-5.35" font-family="Helvetica,sans-Serif" font-size="12.00">/apfelxx/inc/apfel/apfelxx.h</text>
</a>
</g>
</g>
<!-- Node1&#45;&gt;Node2 -->
<g id="edge1_Node000001_Node000002" class="edge">
<title>Node1&#45;&gt;Node2</title>
<g id="a_edge1_Node000001_Node000002"><a xlink:title=" ">
<path fill="none" stroke="#63b8ff" d="M83.04,-130.73C75.46,-122.78 68.29,-113.3 64.25,-103 58.81,-89.14 58.81,-83.36 64.25,-69.5 69.76,-55.47 81.05,-42.97 91.3,-33.78"/>
<polygon fill="#63b8ff" stroke="#63b8ff" points="80.59,-133.23 90.21,-137.67 85.46,-128.2 80.59,-133.23"/>
</a>
</g>
</g>
<!-- Node3 -->
<g id="Node000003" class="node">
<title>Node3</title>
<g id="a_Node000003"><a xlink:href="initialiseevolution_8h.html" target="_top" xlink:title=" ">
<polygon fill="white" stroke="#666666" points="284.75,-103 73.75,-103 73.75,-69.5 284.75,-69.5 284.75,-103"/>
<text xml:space="preserve" text-anchor="start" x="81.75" y="-87.6" font-family="Helvetica,sans-Serif" font-size="12.00">/Users/vb262523/Codes</text>
<text xml:space="preserve" text-anchor="middle" x="179.25" y="-74.85" font-family="Helvetica,sans-Serif" font-size="12.00">/apfelxx/inc/apfel/initialiseevolution.h</text>
</a>
</g>
</g>
<!-- Node1&#45;&gt;Node3 -->
<g id="edge2_Node000001_Node000003" class="edge">
<title>Node1&#45;&gt;Node3</title>
<g id="a_edge2_Node000001_Node000003"><a xlink:title=" ">
<path fill="none" stroke="#63b8ff" d="M136.1,-130.72C145.2,-121.56 155.33,-111.35 163.49,-103.13"/>
<polygon fill="#63b8ff" stroke="#63b8ff" points="133.76,-128.12 129.19,-137.68 138.72,-133.05 133.76,-128.12"/>
</a>
</g>
</g>
<!-- Node3&#45;&gt;Node2 -->
<g id="edge3_Node000003_Node000002" class="edge">
<title>Node3&#45;&gt;Node2</title>
<g id="a_edge3_Node000003_Node000002"><a xlink:title=" ">
<path fill="none" stroke="#63b8ff" d="M155.4,-61.22C146.3,-52.06 136.17,-41.85 128.01,-33.63"/>
<polygon fill="#63b8ff" stroke="#63b8ff" points="152.78,-63.55 162.31,-68.18 157.74,-58.62 152.78,-63.55"/>
</a>
</g>
</g>
</g>
</svg>
