<?xml version="1.0" encoding="UTF-8" standalone="no"?>
<!DOCTYPE svg PUBLIC "-//W3C//DTD SVG 1.1//EN"
 "http://www.w3.org/Graphics/SVG/1.1/DTD/svg11.dtd">
<!-- Generated by graphviz version 15.0.0 (20260523.1842)
 -->
<!-- Title: /Users/vb262523/Codes/apfelxx/inc/apfel/doubleobject.h Pages: 1 -->
<svg width="270pt" height="155pt"
 viewBox="0.00 0.00 270.00 155.00" xmlns="http://www.w3.org/2000/svg" xmlns:xlink="http://www.w3.org/1999/xlink">
<g id="graph0" class="graph" transform="scale(1 1) rotate(0) translate(4 151)">
<title>/Users/vb262523/Codes/apfelxx/inc/apfel/doubleobject.h</title>
<!-- Node1 -->
<g id="Node000001" class="node">
<title>Node1</title>
<g id="a_Node000001"><a xlink:title=" ">
<polygon fill="#999999" stroke="#666666" points="241.62,-147 54.62,-147 54.62,-113.5 241.62,-113.5 241.62,-147"/>
<text xml:space="preserve" text-anchor="start" x="62.62" y="-131.6" font-family="Helvetica,sans-Serif" font-size="12.00">/Users/vb262523/Codes</text>
<text xml:space="preserve" text-anchor="middle" x="148.12" y="-118.85" font-family="Helvetica,sans-Serif" font-size="12.00">/apfelxx/inc/apfel/doubleobject.h</text>
</a>
</g>
</g>
<!-- Node2 -->
<g id="Node000002" class="node">
<title>Node2</title>
<g id="a_Node000002"><a xlink:href="tools_8h.html" target="_top" xlink:title=" ">
<polygon fill="white" stroke="#666666" points="96.38,-77.5 15.88,-77.5 15.88,-56.75 96.38,-56.75 96.38,-77.5"/>
<text xml:space="preserve" text-anchor="middle" x="56.12" y="-62.1" font-family="Helvetica,sans-Serif" font-size="12.00">apfel/tools.h</text>
</a>
</g>
</g>
<!-- Node1&#45;&gt;Node2 -->
<g id="edge1_Node000001_Node000002" class="edge">
<title>Node1&#45;&gt;Node2</title>
<g id="a_edge1_Node000001_Node000002"><a xlink:title=" ">
<path fill="none" stroke="#63b8ff" d="M123.95,-113.19C110.55,-104.28 93.92,-93.24 80.48,-84.31"/>
<polygon fill="#63b8ff" stroke="#63b8ff" points="82.47,-81.42 72.2,-78.8 78.59,-87.25 82.47,-81.42"/>
</a>
</g>
</g>
<!-- Node5 -->
<g id="Node000005" class="node">
<title>Node5</title>
<g id="a_Node000005"><a xlink:title=" ">
<polygon fill="#e0e0e0" stroke="#999999" points="182,-77.5 114.25,-77.5 114.25,-56.75 182,-56.75 182,-77.5"/>
<text xml:space="preserve" text-anchor="middle" x="148.12" y="-62.1" font-family="Helvetica,sans-Serif" font-size="12.00">functional</text>
</a>
</g>
</g>
<!-- Node1&#45;&gt;Node5 -->
<g id="edge4_Node000001_Node000005" class="edge">
<title>Node1&#45;&gt;Node5</title>
<g id="a_edge4_Node000001_Node000005"><a xlink:title=" ">
<path fill="none" stroke="#63b8ff" d="M148.12,-113.19C148.12,-105.85 148.12,-97.07 148.12,-89.21"/>
<polygon fill="#63b8ff" stroke="#63b8ff" points="151.63,-89.48 148.13,-79.48 144.63,-89.48 151.63,-89.48"/>
</a>
</g>
</g>
<!-- Node6 -->
<g id="Node000006" class="node">
<title>Node6</title>
<g id="a_Node000006"><a xlink:title=" ">
<polygon fill="#e0e0e0" stroke="#999999" points="262,-77.5 200.25,-77.5 200.25,-56.75 262,-56.75 262,-77.5"/>
<text xml:space="preserve" text-anchor="middle" x="231.12" y="-62.1" font-family="Helvetica,sans-Serif" font-size="12.00">iostream</text>
</a>
</g>
</g>
<!-- Node1&#45;&gt;Node6 -->
<g id="edge5_Node000001_Node000006" class="edge">
<title>Node1&#45;&gt;Node6</title>
<g id="a_edge5_Node000001_Node000006"><a xlink:title=" ">
<path fill="none" stroke="#63b8ff" d="M169.93,-113.19C181.91,-104.37 196.73,-93.45 208.79,-84.57"/>
<polygon fill="#63b8ff" stroke="#63b8ff" points="210.57,-87.61 216.54,-78.86 206.41,-81.98 210.57,-87.61"/>
</a>
</g>
</g>
<!-- Node3 -->
<g id="Node000003" class="node">
<title>Node3</title>
<g id="a_Node000003"><a xlink:title=" ">
<polygon fill="#e0e0e0" stroke="#999999" points="48.25,-20.75 0,-20.75 0,0 48.25,0 48.25,-20.75"/>
<text xml:space="preserve" text-anchor="middle" x="24.12" y="-5.35" font-family="Helvetica,sans-Serif" font-size="12.00">vector</text>
</a>
</g>
</g>
<!-- Node2&#45;&gt;Node3 -->
<g id="edge2_Node000002_Node000003" class="edge">
<title>Node2&#45;&gt;Node3</title>
<g id="a_edge2_Node000002_Node000003"><a xlink:title=" ">
<path fill="none" stroke="#63b8ff" d="M50.4,-56.34C46.26,-49.25 40.53,-39.44 35.47,-30.79"/>
<polygon fill="#63b8ff" stroke="#63b8ff" points="38.63,-29.25 30.56,-22.39 32.58,-32.78 38.63,-29.25"/>
</a>
</g>
</g>
<!-- Node4 -->
<g id="Node000004" class="node">
<title>Node4</title>
<g id="a_Node000004"><a xlink:title=" ">
<polygon fill="#e0e0e0" stroke="#999999" points="111.75,-20.75 66.5,-20.75 66.5,0 111.75,0 111.75,-20.75"/>
<text xml:space="preserve" text-anchor="middle" x="89.12" y="-5.35" font-family="Helvetica,sans-Serif" font-size="12.00">string</text>
</a>
</g>
</g>
<!-- Node2&#45;&gt;Node4 -->
<g id="edge3_Node000002_Node000004" class="edge">
<title>Node2&#45;&gt;Node4</title>
<g id="a_edge3_Node000002_Node000004"><a xlink:title=" ">
<path fill="none" stroke="#63b8ff" d="M62.02,-56.34C66.3,-49.25 72.21,-39.44 77.42,-30.79"/>
<polygon fill="#63b8ff" stroke="#63b8ff" points="80.33,-32.75 82.5,-22.37 74.34,-29.13 80.33,-32.75"/>
</a>
</g>
</g>
</g>
</svg>
