<?xml version="1.0" encoding="UTF-8" standalone="no"?>
<!DOCTYPE svg PUBLIC "-//W3C//DTD SVG 1.1//EN"
 "http://www.w3.org/Graphics/SVG/1.1/DTD/svg11.dtd">
<!-- Generated by graphviz version 15.0.0 (20260523.1842)
 -->
<!-- Title: /Users/vb262523/Codes/apfelxx/inc/apfel/factorisationschemes.h Pages: 1 -->
<svg width="674pt" height="609pt"
 viewBox="0.00 0.00 674.00 609.00" xmlns="http://www.w3.org/2000/svg" xmlns:xlink="http://www.w3.org/1999/xlink">
<g id="graph0" class="graph" transform="scale(1 1) rotate(0) translate(4 605)">
<title>/Users/vb262523/Codes/apfelxx/inc/apfel/factorisationschemes.h</title>
<!-- Node1 -->
<g id="Node000001" class="node">
<title>Node1</title>
<g id="a_Node000001"><a xlink:title=" ">
<polygon fill="#999999" stroke="#666666" points="343.25,-601 112.75,-601 112.75,-567.5 343.25,-567.5 343.25,-601"/>
<text xml:space="preserve" text-anchor="start" x="120.75" y="-585.6" font-family="Helvetica,sans-Serif" font-size="12.00">/Users/vb262523/Codes</text>
<text xml:space="preserve" text-anchor="middle" x="228" y="-572.85" font-family="Helvetica,sans-Serif" font-size="12.00">/apfelxx/inc/apfel/factorisationschemes.h</text>
</a>
</g>
</g>
<!-- Node2 -->
<g id="Node000002" class="node">
<title>Node2</title>
<g id="a_Node000002"><a xlink:href="dglapbuilder_8h.html" target="_top" xlink:title=" ">
<polygon fill="white" stroke="#666666" points="229.88,-474.75 108.12,-474.75 108.12,-454 229.88,-454 229.88,-474.75"/>
<text xml:space="preserve" text-anchor="middle" x="169" y="-459.35" font-family="Helvetica,sans-Serif" font-size="12.00">apfel/dglapbuilder.h</text>
</a>
</g>
</g>
<!-- Node1&#45;&gt;Node2 -->
<g id="edge1_Node000001_Node000002" class="edge">
<title>Node1&#45;&gt;Node2</title>
<g id="a_edge1_Node000001_Node000002"><a xlink:title=" ">
<path fill="none" stroke="#63b8ff" d="M212.93,-567.1C204.57,-557.4 194.57,-544.47 188,-531.5 180.73,-517.14 175.85,-499.58 172.85,-486.16"/>
<polygon fill="#63b8ff" stroke="#63b8ff" points="176.35,-485.8 170.93,-476.7 169.49,-487.2 176.35,-485.8"/>
</a>
</g>
</g>
<!-- Node26 -->
<g id="Node000026" class="node">
<title>Node26</title>
<g id="a_Node000026"><a xlink:href="structurefunctionbuilder_8h.html" target="_top" xlink:title=" ">
<polygon fill="white" stroke="#666666" points="376.75,-531.5 197.25,-531.5 197.25,-510.75 376.75,-510.75 376.75,-531.5"/>
<text xml:space="preserve" text-anchor="middle" x="287" y="-516.1" font-family="Helvetica,sans-Serif" font-size="12.00">apfel/structurefunctionbuilder.h</text>
</a>
</g>
</g>
<!-- Node1&#45;&gt;Node26 -->
<g id="edge37_Node000001_Node000026" class="edge">
<title>Node1&#45;&gt;Node26</title>
<g id="a_edge37_Node000001_Node000026"><a xlink:title=" ">
<path fill="none" stroke="#63b8ff" d="M243.5,-567.19C251.51,-558.89 261.31,-548.74 269.58,-540.18"/>
<polygon fill="#63b8ff" stroke="#63b8ff" points="272.02,-542.68 276.45,-533.06 266.99,-537.82 272.02,-542.68"/>
</a>
</g>
</g>
<!-- Node3 -->
<g id="Node000003" class="node">
<title>Node3</title>
<g id="a_Node000003"><a xlink:href="grid_8h.html" target="_top" xlink:title=" ">
<polygon fill="white" stroke="#666666" points="164.62,-134.25 89.38,-134.25 89.38,-113.5 164.62,-113.5 164.62,-134.25"/>
<text xml:space="preserve" text-anchor="middle" x="127" y="-118.85" font-family="Helvetica,sans-Serif" font-size="12.00">apfel/grid.h</text>
</a>
</g>
</g>
<!-- Node2&#45;&gt;Node3 -->
<g id="edge2_Node000002_Node000003" class="edge">
<title>Node2&#45;&gt;Node3</title>
<g id="a_edge2_Node000002_Node000003"><a xlink:title=" ">
<path fill="none" stroke="#63b8ff" d="M132.82,-453.63C114.51,-446.76 93.73,-435.56 82,-418 20.63,-326.14 10.92,-268.2 62,-170.25 68.71,-157.38 80.93,-147.41 92.97,-140.14"/>
<polygon fill="#63b8ff" stroke="#63b8ff" points="94.52,-143.28 101.6,-135.39 91.15,-137.15 94.52,-143.28"/>
</a>
</g>
</g>
<!-- Node8 -->
<g id="Node000008" class="node">
<title>Node8</title>
<g id="a_Node000008"><a xlink:href="dglap_8h.html" target="_top" xlink:title=" ">
<polygon fill="white" stroke="#666666" points="329.5,-418 244.5,-418 244.5,-397.25 329.5,-397.25 329.5,-418"/>
<text xml:space="preserve" text-anchor="middle" x="287" y="-402.6" font-family="Helvetica,sans-Serif" font-size="12.00">apfel/dglap.h</text>
</a>
</g>
</g>
<!-- Node2&#45;&gt;Node8 -->
<g id="edge7_Node000002_Node000008" class="edge">
<title>Node2&#45;&gt;Node8</title>
<g id="a_edge7_Node000002_Node000008"><a xlink:title=" ">
<path fill="none" stroke="#63b8ff" d="M190.1,-453.59C208.39,-445.1 235.1,-432.7 255.86,-423.08"/>
<polygon fill="#63b8ff" stroke="#63b8ff" points="257.12,-426.35 264.71,-418.97 254.17,-420 257.12,-426.35"/>
</a>
</g>
</g>
<!-- Node25 -->
<g id="Node000025" class="node">
<title>Node25</title>
<g id="a_Node000025"><a xlink:href="dglapnonlinear_8h.html" target="_top" xlink:title=" ">
<polygon fill="white" stroke="#666666" points="226.62,-418 91.38,-418 91.38,-397.25 226.62,-397.25 226.62,-418"/>
<text xml:space="preserve" text-anchor="middle" x="159" y="-402.6" font-family="Helvetica,sans-Serif" font-size="12.00">apfel/dglapnonlinear.h</text>
</a>
</g>
</g>
<!-- Node2&#45;&gt;Node25 -->
<g id="edge33_Node000002_Node000025" class="edge">
<title>Node2&#45;&gt;Node25</title>
<g id="a_edge33_Node000002_Node000025"><a xlink:title=" ">
<path fill="none" stroke="#63b8ff" d="M167.21,-453.59C165.99,-446.89 164.32,-437.76 162.81,-429.48"/>
<polygon fill="#63b8ff" stroke="#63b8ff" points="166.28,-429.03 161.04,-419.82 159.4,-430.28 166.28,-429.03"/>
</a>
</g>
</g>
<!-- Node4 -->
<g id="Node000004" class="node">
<title>Node4</title>
<g id="a_Node000004"><a xlink:href="subgrid_8h.html" target="_top" xlink:title=" ">
<polygon fill="white" stroke="#666666" points="427.38,-77.5 332.62,-77.5 332.62,-56.75 427.38,-56.75 427.38,-77.5"/>
<text xml:space="preserve" text-anchor="middle" x="380" y="-62.1" font-family="Helvetica,sans-Serif" font-size="12.00">apfel/subgrid.h</text>
</a>
</g>
</g>
<!-- Node3&#45;&gt;Node4 -->
<g id="edge3_Node000003_Node000004" class="edge">
<title>Node3&#45;&gt;Node4</title>
<g id="a_edge3_Node000003_Node000004"><a xlink:title=" ">
<path fill="none" stroke="#63b8ff" d="M164.88,-114.68C206.86,-105.59 275.03,-90.84 323.36,-80.38"/>
<polygon fill="#63b8ff" stroke="#63b8ff" points="324.07,-83.81 333.1,-78.27 322.59,-76.97 324.07,-83.81"/>
</a>
</g>
</g>
<!-- Node7 -->
<g id="Node000007" class="node">
<title>Node7</title>
<g id="a_Node000007"><a xlink:title=" ">
<polygon fill="#e0e0e0" stroke="#999999" points="156.38,-77.5 97.62,-77.5 97.62,-56.75 156.38,-56.75 156.38,-77.5"/>
<text xml:space="preserve" text-anchor="middle" x="127" y="-62.1" font-family="Helvetica,sans-Serif" font-size="12.00">memory</text>
</a>
</g>
</g>
<!-- Node3&#45;&gt;Node7 -->
<g id="edge6_Node000003_Node000007" class="edge">
<title>Node3&#45;&gt;Node7</title>
<g id="a_edge6_Node000003_Node000007"><a xlink:title=" ">
<path fill="none" stroke="#63b8ff" d="M127,-113.09C127,-106.47 127,-97.47 127,-89.27"/>
<polygon fill="#63b8ff" stroke="#63b8ff" points="130.5,-89.34 127,-79.34 123.5,-89.34 130.5,-89.34"/>
</a>
</g>
</g>
<!-- Node5 -->
<g id="Node000005" class="node">
<title>Node5</title>
<g id="a_Node000005"><a xlink:title=" ">
<polygon fill="#e0e0e0" stroke="#999999" points="404.12,-20.75 355.88,-20.75 355.88,0 404.12,0 404.12,-20.75"/>
<text xml:space="preserve" text-anchor="middle" x="380" y="-5.35" font-family="Helvetica,sans-Serif" font-size="12.00">vector</text>
</a>
</g>
</g>
<!-- Node4&#45;&gt;Node5 -->
<g id="edge4_Node000004_Node000005" class="edge">
<title>Node4&#45;&gt;Node5</title>
<g id="a_edge4_Node000004_Node000005"><a xlink:title=" ">
<path fill="none" stroke="#63b8ff" d="M380,-56.34C380,-49.72 380,-40.72 380,-32.52"/>
<polygon fill="#63b8ff" stroke="#63b8ff" points="383.5,-32.59 380,-22.59 376.5,-32.59 383.5,-32.59"/>
</a>
</g>
</g>
<!-- Node6 -->
<g id="Node000006" class="node">
<title>Node6</title>
<g id="a_Node000006"><a xlink:title=" ">
<polygon fill="#e0e0e0" stroke="#999999" points="585.88,-20.75 524.12,-20.75 524.12,0 585.88,0 585.88,-20.75"/>
<text xml:space="preserve" text-anchor="middle" x="555" y="-5.35" font-family="Helvetica,sans-Serif" font-size="12.00">iostream</text>
</a>
</g>
</g>
<!-- Node4&#45;&gt;Node6 -->
<g id="edge5_Node000004_Node000006" class="edge">
<title>Node4&#45;&gt;Node6</title>
<g id="a_edge5_Node000004_Node000006"><a xlink:title=" ">
<path fill="none" stroke="#63b8ff" d="M411.29,-56.34C439.69,-47.45 481.81,-34.27 513.11,-24.48"/>
<polygon fill="#63b8ff" stroke="#63b8ff" points="513.75,-27.95 522.25,-21.62 511.66,-21.27 513.75,-27.95"/>
</a>
</g>
</g>
<!-- Node9 -->
<g id="Node000009" class="node">
<title>Node9</title>
<g id="a_Node000009"><a xlink:href="matchedevolution_8h.html" target="_top" xlink:title=" ">
<polygon fill="white" stroke="#666666" points="240.75,-361.25 91.25,-361.25 91.25,-340.5 240.75,-340.5 240.75,-361.25"/>
<text xml:space="preserve" text-anchor="middle" x="166" y="-345.85" font-family="Helvetica,sans-Serif" font-size="12.00">apfel/matchedevolution.h</text>
</a>
</g>
</g>
<!-- Node8&#45;&gt;Node9 -->
<g id="edge8_Node000008_Node000009" class="edge">
<title>Node8&#45;&gt;Node9</title>
<g id="a_edge8_Node000008_Node000009"><a xlink:title=" ">
<path fill="none" stroke="#63b8ff" d="M265.37,-396.84C246.53,-388.31 218.96,-375.84 197.64,-366.19"/>
<polygon fill="#63b8ff" stroke="#63b8ff" points="199.38,-363.14 188.82,-362.2 196.49,-369.51 199.38,-363.14"/>
</a>
</g>
</g>
<!-- Node11 -->
<g id="Node000011" class="node">
<title>Node11</title>
<g id="a_Node000011"><a xlink:href="set_8h.html" target="_top" xlink:title=" ">
<polygon fill="white" stroke="#666666" points="331.38,-361.25 260.62,-361.25 260.62,-340.5 331.38,-340.5 331.38,-361.25"/>
<text xml:space="preserve" text-anchor="middle" x="296" y="-345.85" font-family="Helvetica,sans-Serif" font-size="12.00">apfel/set.h</text>
</a>
</g>
</g>
<!-- Node8&#45;&gt;Node11 -->
<g id="edge11_Node000008_Node000011" class="edge">
<title>Node8&#45;&gt;Node11</title>
<g id="a_edge11_Node000008_Node000011"><a xlink:title=" ">
<path fill="none" stroke="#63b8ff" d="M288.61,-396.84C289.71,-390.14 291.21,-381.01 292.57,-372.73"/>
<polygon fill="#63b8ff" stroke="#63b8ff" points="295.99,-373.51 294.16,-363.07 289.08,-372.37 295.99,-373.51"/>
</a>
</g>
</g>
<!-- Node23 -->
<g id="Node000023" class="node">
<title>Node23</title>
<g id="a_Node000023"><a xlink:href="operator_8h.html" target="_top" xlink:title=" ">
<polygon fill="white" stroke="#666666" points="450.62,-361.25 351.38,-361.25 351.38,-340.5 450.62,-340.5 450.62,-361.25"/>
<text xml:space="preserve" text-anchor="middle" x="401" y="-345.85" font-family="Helvetica,sans-Serif" font-size="12.00">apfel/operator.h</text>
</a>
</g>
</g>
<!-- Node8&#45;&gt;Node23 -->
<g id="edge29_Node000008_Node000023" class="edge">
<title>Node8&#45;&gt;Node23</title>
<g id="a_edge29_Node000008_Node000023"><a xlink:title=" ">
<path fill="none" stroke="#63b8ff" d="M307.38,-396.84C324.97,-388.39 350.63,-376.07 370.63,-366.46"/>
<polygon fill="#63b8ff" stroke="#63b8ff" points="371.93,-369.72 379.43,-362.23 368.9,-363.41 371.93,-369.72"/>
</a>
</g>
</g>
<!-- Node9&#45;&gt;Node5 -->
<g id="edge10_Node000009_Node000005" class="edge">
<title>Node9&#45;&gt;Node5</title>
<g id="a_edge10_Node000009_Node000005"><a xlink:title=" ">
<path fill="none" stroke="#63b8ff" d="M143.61,-340.07C98.3,-318.52 0,-262.46 0,-181.62 0,-181.62 0,-181.62 0,-122.88 0,-73.6 43.55,-75.8 89,-56.75 175.55,-20.48 287.57,-12.89 344.05,-11.51"/>
<polygon fill="#63b8ff" stroke="#63b8ff" points="344.11,-15 354.04,-11.32 343.98,-8.01 344.11,-15"/>
</a>
</g>
</g>
<!-- Node10 -->
<g id="Node000010" class="node">
<title>Node10</title>
<g id="a_Node000010"><a xlink:title=" ">
<polygon fill="#e0e0e0" stroke="#999999" points="190.12,-304.5 141.88,-304.5 141.88,-283.75 190.12,-283.75 190.12,-304.5"/>
<text xml:space="preserve" text-anchor="middle" x="166" y="-289.1" font-family="Helvetica,sans-Serif" font-size="12.00">cmath</text>
</a>
</g>
</g>
<!-- Node9&#45;&gt;Node10 -->
<g id="edge9_Node000009_Node000010" class="edge">
<title>Node9&#45;&gt;Node10</title>
<g id="a_edge9_Node000009_Node000010"><a xlink:title=" ">
<path fill="none" stroke="#63b8ff" d="M166,-340.09C166,-333.47 166,-324.47 166,-316.27"/>
<polygon fill="#63b8ff" stroke="#63b8ff" points="169.5,-316.34 166,-306.34 162.5,-316.34 169.5,-316.34"/>
</a>
</g>
</g>
<!-- Node12 -->
<g id="Node000012" class="node">
<title>Node12</title>
<g id="a_Node000012"><a xlink:href="convolutionmap_8h.html" target="_top" xlink:title=" ">
<polygon fill="white" stroke="#666666" points="517.88,-304.5 378.12,-304.5 378.12,-283.75 517.88,-283.75 517.88,-304.5"/>
<text xml:space="preserve" text-anchor="middle" x="448" y="-289.1" font-family="Helvetica,sans-Serif" font-size="12.00">apfel/convolutionmap.h</text>
</a>
</g>
</g>
<!-- Node11&#45;&gt;Node12 -->
<g id="edge12_Node000011_Node000012" class="edge">
<title>Node11&#45;&gt;Node12</title>
<g id="a_edge12_Node000011_Node000012"><a xlink:title=" ">
<path fill="none" stroke="#63b8ff" d="M323.17,-340.09C347.42,-331.36 383.15,-318.48 410.18,-308.75"/>
<polygon fill="#63b8ff" stroke="#63b8ff" points="411.16,-312.12 419.38,-305.43 408.79,-305.53 411.16,-312.12"/>
</a>
</g>
</g>
<!-- Node19 -->
<g id="Node000019" class="node">
<title>Node19</title>
<g id="a_Node000019"><a xlink:href="distribution_8h.html" target="_top" xlink:title=" ">
<polygon fill="white" stroke="#666666" points="359.75,-304.5 246.25,-304.5 246.25,-283.75 359.75,-283.75 359.75,-304.5"/>
<text xml:space="preserve" text-anchor="middle" x="303" y="-289.1" font-family="Helvetica,sans-Serif" font-size="12.00">apfel/distribution.h</text>
</a>
</g>
</g>
<!-- Node11&#45;&gt;Node19 -->
<g id="edge21_Node000011_Node000019" class="edge">
<title>Node11&#45;&gt;Node19</title>
<g id="a_edge21_Node000011_Node000019"><a xlink:title=" ">
<path fill="none" stroke="#63b8ff" d="M297.25,-340.09C298.11,-333.39 299.27,-324.26 300.33,-315.98"/>
<polygon fill="#63b8ff" stroke="#63b8ff" points="303.77,-316.69 301.57,-306.33 296.83,-315.81 303.77,-316.69"/>
</a>
</g>
</g>
<!-- Node22 -->
<g id="Node000022" class="node">
<title>Node22</title>
<g id="a_Node000022"><a xlink:title=" ">
<polygon fill="#e0e0e0" stroke="#999999" points="171.88,-247.75 104.12,-247.75 104.12,-227 171.88,-227 171.88,-247.75"/>
<text xml:space="preserve" text-anchor="middle" x="138" y="-232.35" font-family="Helvetica,sans-Serif" font-size="12.00">functional</text>
</a>
</g>
</g>
<!-- Node11&#45;&gt;Node22 -->
<g id="edge28_Node000011_Node000022" class="edge">
<title>Node11&#45;&gt;Node22</title>
<g id="a_edge28_Node000011_Node000022"><a xlink:title=" ">
<path fill="none" stroke="#63b8ff" d="M282.25,-340.18C255.06,-320.98 194.14,-277.99 160.82,-254.48"/>
<polygon fill="#63b8ff" stroke="#63b8ff" points="163.25,-251.91 153.06,-249 159.21,-257.63 163.25,-251.91"/>
</a>
</g>
</g>
<!-- Node12&#45;&gt;Node6 -->
<g id="edge20_Node000012_Node000006" class="edge">
<title>Node12&#45;&gt;Node6</title>
<g id="a_edge20_Node000012_Node000006"><a xlink:title=" ">
<path fill="none" stroke="#63b8ff" d="M518.15,-284.04C542.8,-277.59 568.84,-266.57 587,-247.75 608.23,-225.75 606,-212.2 606,-181.62 606,-181.62 606,-181.62 606,-122.88 606,-87.75 584.81,-51.59 569.75,-30.31"/>
<polygon fill="#63b8ff" stroke="#63b8ff" points="572.63,-28.31 563.87,-22.35 567,-32.47 572.63,-28.31"/>
</a>
</g>
</g>
<!-- Node13 -->
<g id="Node000013" class="node">
<title>Node13</title>
<g id="a_Node000013"><a xlink:href="matrix_8h.html" target="_top" xlink:title=" ">
<polygon fill="white" stroke="#666666" points="577.62,-247.75 490.38,-247.75 490.38,-227 577.62,-227 577.62,-247.75"/>
<text xml:space="preserve" text-anchor="middle" x="534" y="-232.35" font-family="Helvetica,sans-Serif" font-size="12.00">apfel/matrix.h</text>
</a>
</g>
</g>
<!-- Node12&#45;&gt;Node13 -->
<g id="edge13_Node000012_Node000013" class="edge">
<title>Node12&#45;&gt;Node13</title>
<g id="a_edge13_Node000012_Node000013"><a xlink:title=" ">
<path fill="none" stroke="#63b8ff" d="M463.38,-283.34C476.09,-275.24 494.4,-263.58 509.19,-254.17"/>
<polygon fill="#63b8ff" stroke="#63b8ff" points="510.93,-257.21 517.48,-248.89 507.17,-251.31 510.93,-257.21"/>
</a>
</g>
</g>
<!-- Node17 -->
<g id="Node000017" class="node">
<title>Node17</title>
<g id="a_Node000017"><a xlink:title=" ">
<polygon fill="#e0e0e0" stroke="#999999" points="409.62,-247.75 370.38,-247.75 370.38,-227 409.62,-227 409.62,-247.75"/>
<text xml:space="preserve" text-anchor="middle" x="390" y="-232.35" font-family="Helvetica,sans-Serif" font-size="12.00">map</text>
</a>
</g>
</g>
<!-- Node12&#45;&gt;Node17 -->
<g id="edge18_Node000012_Node000017" class="edge">
<title>Node12&#45;&gt;Node17</title>
<g id="a_edge18_Node000012_Node000017"><a xlink:title=" ">
<path fill="none" stroke="#63b8ff" d="M437.63,-283.34C429.55,-275.71 418.12,-264.92 408.48,-255.82"/>
<polygon fill="#63b8ff" stroke="#63b8ff" points="411.05,-253.44 401.38,-249.12 406.25,-258.53 411.05,-253.44"/>
</a>
</g>
</g>
<!-- Node18 -->
<g id="Node000018" class="node">
<title>Node18</title>
<g id="a_Node000018"><a xlink:title=" ">
<polygon fill="#e0e0e0" stroke="#999999" points="472.62,-247.75 427.38,-247.75 427.38,-227 472.62,-227 472.62,-247.75"/>
<text xml:space="preserve" text-anchor="middle" x="450" y="-232.35" font-family="Helvetica,sans-Serif" font-size="12.00">string</text>
</a>
</g>
</g>
<!-- Node12&#45;&gt;Node18 -->
<g id="edge19_Node000012_Node000018" class="edge">
<title>Node12&#45;&gt;Node18</title>
<g id="a_edge19_Node000012_Node000018"><a xlink:title=" ">
<path fill="none" stroke="#63b8ff" d="M448.36,-283.34C448.6,-276.72 448.93,-267.72 449.23,-259.52"/>
<polygon fill="#63b8ff" stroke="#63b8ff" points="452.72,-259.71 449.59,-249.59 445.73,-259.46 452.72,-259.71"/>
</a>
</g>
</g>
<!-- Node13&#45;&gt;Node5 -->
<g id="edge14_Node000013_Node000005" class="edge">
<title>Node13&#45;&gt;Node5</title>
<g id="a_edge14_Node000013_Node000005"><a xlink:title=" ">
<path fill="none" stroke="#63b8ff" d="M538.29,-226.59C543.45,-213.35 550.52,-189.2 543,-170.25 516.56,-103.66 445.82,-51.71 406.78,-27.05"/>
<polygon fill="#63b8ff" stroke="#63b8ff" points="408.77,-24.17 398.42,-21.9 405.1,-30.13 408.77,-24.17"/>
</a>
</g>
</g>
<!-- Node14 -->
<g id="Node000014" class="node">
<title>Node14</title>
<g id="a_Node000014"><a xlink:title=" ">
<polygon fill="#e0e0e0" stroke="#999999" points="338.5,-134.25 295.5,-134.25 295.5,-113.5 338.5,-113.5 338.5,-134.25"/>
<text xml:space="preserve" text-anchor="middle" x="317" y="-118.85" font-family="Helvetica,sans-Serif" font-size="12.00">array</text>
</a>
</g>
</g>
<!-- Node13&#45;&gt;Node14 -->
<g id="edge15_Node000013_Node000014" class="edge">
<title>Node13&#45;&gt;Node14</title>
<g id="a_edge15_Node000013_Node000014"><a xlink:title=" ">
<path fill="none" stroke="#63b8ff" d="M489.93,-226.66C461.66,-219.33 424.81,-207.65 395,-191 371.42,-177.83 348.32,-156.96 333.45,-142.19"/>
<polygon fill="#63b8ff" stroke="#63b8ff" points="336.28,-140.07 326.77,-135.39 331.28,-144.98 336.28,-140.07"/>
</a>
</g>
</g>
<!-- Node15 -->
<g id="Node000015" class="node">
<title>Node15</title>
<g id="a_Node000015"><a xlink:title=" ">
<polygon fill="#e0e0e0" stroke="#999999" points="534,-191 476,-191 476,-170.25 534,-170.25 534,-191"/>
<text xml:space="preserve" text-anchor="middle" x="505" y="-175.6" font-family="Helvetica,sans-Serif" font-size="12.00">stddef.h</text>
</a>
</g>
</g>
<!-- Node13&#45;&gt;Node15 -->
<g id="edge16_Node000013_Node000015" class="edge">
<title>Node13&#45;&gt;Node15</title>
<g id="a_edge16_Node000013_Node000015"><a xlink:title=" ">
<path fill="none" stroke="#63b8ff" d="M528.82,-226.59C525.1,-219.58 519.98,-209.91 515.44,-201.33"/>
<polygon fill="#63b8ff" stroke="#63b8ff" points="518.62,-199.86 510.85,-192.67 512.44,-203.14 518.62,-199.86"/>
</a>
</g>
</g>
<!-- Node16 -->
<g id="Node000016" class="node">
<title>Node16</title>
<g id="a_Node000016"><a xlink:title=" ">
<polygon fill="#e0e0e0" stroke="#999999" points="458.12,-191 403.88,-191 403.88,-170.25 458.12,-170.25 458.12,-191"/>
<text xml:space="preserve" text-anchor="middle" x="431" y="-175.6" font-family="Helvetica,sans-Serif" font-size="12.00">cstddef</text>
</a>
</g>
</g>
<!-- Node13&#45;&gt;Node16 -->
<g id="edge17_Node000013_Node000016" class="edge">
<title>Node13&#45;&gt;Node16</title>
<g id="a_edge17_Node000013_Node000016"><a xlink:title=" ">
<path fill="none" stroke="#63b8ff" d="M515.59,-226.59C499.91,-218.26 477.15,-206.16 459.19,-196.61"/>
<polygon fill="#63b8ff" stroke="#63b8ff" points="461.06,-193.64 450.59,-192.04 457.78,-199.82 461.06,-193.64"/>
</a>
</g>
</g>
<!-- Node19&#45;&gt;Node17 -->
<g id="edge26_Node000019_Node000017" class="edge">
<title>Node19&#45;&gt;Node17</title>
<g id="a_edge26_Node000019_Node000017"><a xlink:title=" ">
<path fill="none" stroke="#63b8ff" d="M318.55,-283.34C331.42,-275.24 349.94,-263.58 364.91,-254.17"/>
<polygon fill="#63b8ff" stroke="#63b8ff" points="366.7,-257.17 373.3,-248.88 362.97,-251.25 366.7,-257.17"/>
</a>
</g>
</g>
<!-- Node20 -->
<g id="Node000020" class="node">
<title>Node20</title>
<g id="a_Node000020"><a xlink:href="lagrangeinterpolator_8h.html" target="_top" xlink:title=" ">
<polygon fill="white" stroke="#666666" points="352.12,-247.75 189.88,-247.75 189.88,-227 352.12,-227 352.12,-247.75"/>
<text xml:space="preserve" text-anchor="middle" x="271" y="-232.35" font-family="Helvetica,sans-Serif" font-size="12.00">apfel/lagrangeinterpolator.h</text>
</a>
</g>
</g>
<!-- Node19&#45;&gt;Node20 -->
<g id="edge22_Node000019_Node000020" class="edge">
<title>Node19&#45;&gt;Node20</title>
<g id="a_edge22_Node000019_Node000020"><a xlink:title=" ">
<path fill="none" stroke="#63b8ff" d="M297.28,-283.34C293.14,-276.25 287.4,-266.44 282.35,-257.79"/>
<polygon fill="#63b8ff" stroke="#63b8ff" points="285.5,-256.25 277.44,-249.39 279.46,-259.78 285.5,-256.25"/>
</a>
</g>
</g>
<!-- Node19&#45;&gt;Node22 -->
<g id="edge27_Node000019_Node000022" class="edge">
<title>Node19&#45;&gt;Node22</title>
<g id="a_edge27_Node000019_Node000022"><a xlink:title=" ">
<path fill="none" stroke="#63b8ff" d="M273.5,-283.34C246.95,-274.53 207.7,-261.5 178.27,-251.74"/>
<polygon fill="#63b8ff" stroke="#63b8ff" points="179.55,-248.47 168.96,-248.65 177.35,-255.12 179.55,-248.47"/>
</a>
</g>
</g>
<!-- Node21 -->
<g id="Node000021" class="node">
<title>Node21</title>
<g id="a_Node000021"><a xlink:href="interpolator_8h.html" target="_top" xlink:title=" ">
<polygon fill="white" stroke="#666666" points="328.5,-191 213.5,-191 213.5,-170.25 328.5,-170.25 328.5,-191"/>
<text xml:space="preserve" text-anchor="middle" x="271" y="-175.6" font-family="Helvetica,sans-Serif" font-size="12.00">apfel/interpolator.h</text>
</a>
</g>
</g>
<!-- Node20&#45;&gt;Node21 -->
<g id="edge23_Node000020_Node000021" class="edge">
<title>Node20&#45;&gt;Node21</title>
<g id="a_edge23_Node000020_Node000021"><a xlink:title=" ">
<path fill="none" stroke="#63b8ff" d="M271,-226.59C271,-219.97 271,-210.97 271,-202.77"/>
<polygon fill="#63b8ff" stroke="#63b8ff" points="274.5,-202.84 271,-192.84 267.5,-202.84 274.5,-202.84"/>
</a>
</g>
</g>
<!-- Node21&#45;&gt;Node3 -->
<g id="edge24_Node000021_Node000003" class="edge">
<title>Node21&#45;&gt;Node3</title>
<g id="a_edge24_Node000021_Node000003"><a xlink:title=" ">
<path fill="none" stroke="#63b8ff" d="M245.26,-169.84C222.42,-161.16 188.83,-148.38 163.28,-138.67"/>
<polygon fill="#63b8ff" stroke="#63b8ff" points="164.53,-135.4 153.94,-135.12 162.04,-141.94 164.53,-135.4"/>
</a>
</g>
</g>
<!-- Node21&#45;&gt;Node14 -->
<g id="edge25_Node000021_Node000014" class="edge">
<title>Node21&#45;&gt;Node14</title>
<g id="a_edge25_Node000021_Node000014"><a xlink:title=" ">
<path fill="none" stroke="#63b8ff" d="M279.22,-169.84C285.44,-162.44 294.15,-152.07 301.64,-143.16"/>
<polygon fill="#63b8ff" stroke="#63b8ff" points="304.12,-145.65 307.87,-135.74 298.76,-141.14 304.12,-145.65"/>
</a>
</g>
</g>
<!-- Node23&#45;&gt;Node13 -->
<g id="edge32_Node000023_Node000013" class="edge">
<title>Node23&#45;&gt;Node13</title>
<g id="a_edge32_Node000023_Node000013"><a xlink:title=" ">
<path fill="none" stroke="#63b8ff" d="M451.01,-348.44C518.41,-345.33 632.98,-335.5 659,-304.5 683.32,-275.53 633.08,-257.48 589.22,-247.69"/>
<polygon fill="#63b8ff" stroke="#63b8ff" points="589.95,-244.27 579.45,-245.64 588.51,-251.12 589.95,-244.27"/>
</a>
</g>
</g>
<!-- Node23&#45;&gt;Node19 -->
<g id="edge31_Node000023_Node000019" class="edge">
<title>Node23&#45;&gt;Node19</title>
<g id="a_edge31_Node000023_Node000019"><a xlink:title=" ">
<path fill="none" stroke="#63b8ff" d="M383.48,-340.09C368.71,-331.83 347.32,-319.88 330.3,-310.38"/>
<polygon fill="#63b8ff" stroke="#63b8ff" points="332.13,-307.39 321.69,-305.57 328.71,-313.5 332.13,-307.39"/>
</a>
</g>
</g>
<!-- Node24 -->
<g id="Node000024" class="node">
<title>Node24</title>
<g id="a_Node000024"><a xlink:href="expression_8h.html" target="_top" xlink:title=" ">
<polygon fill="white" stroke="#666666" points="649.75,-304.5 536.25,-304.5 536.25,-283.75 649.75,-283.75 649.75,-304.5"/>
<text xml:space="preserve" text-anchor="middle" x="593" y="-289.1" font-family="Helvetica,sans-Serif" font-size="12.00">apfel/expression.h</text>
</a>
</g>
</g>
<!-- Node23&#45;&gt;Node24 -->
<g id="edge30_Node000023_Node000024" class="edge">
<title>Node23&#45;&gt;Node24</title>
<g id="a_edge30_Node000023_Node000024"><a xlink:title=" ">
<path fill="none" stroke="#63b8ff" d="M435.33,-340.09C466.76,-331.12 513.5,-317.79 547.94,-307.98"/>
<polygon fill="#63b8ff" stroke="#63b8ff" points="548.54,-311.44 557.19,-305.34 546.62,-304.71 548.54,-311.44"/>
</a>
</g>
</g>
<!-- Node25&#45;&gt;Node9 -->
<g id="edge34_Node000025_Node000009" class="edge">
<title>Node25&#45;&gt;Node9</title>
<g id="a_edge34_Node000025_Node000009"><a xlink:title=" ">
<path fill="none" stroke="#63b8ff" d="M160.25,-396.84C161.11,-390.14 162.27,-381.01 163.33,-372.73"/>
<polygon fill="#63b8ff" stroke="#63b8ff" points="166.77,-373.44 164.57,-363.08 159.83,-372.56 166.77,-373.44"/>
</a>
</g>
</g>
<!-- Node25&#45;&gt;Node11 -->
<g id="edge35_Node000025_Node000011" class="edge">
<title>Node25&#45;&gt;Node11</title>
<g id="a_edge35_Node000025_Node000011"><a xlink:title=" ">
<path fill="none" stroke="#63b8ff" d="M183.49,-396.84C205.12,-388.19 236.89,-375.5 261.16,-365.8"/>
<polygon fill="#63b8ff" stroke="#63b8ff" points="262.33,-369.1 270.31,-362.14 259.73,-362.6 262.33,-369.1"/>
</a>
</g>
</g>
<!-- Node25&#45;&gt;Node23 -->
<g id="edge36_Node000025_Node000023" class="edge">
<title>Node25&#45;&gt;Node23</title>
<g id="a_edge36_Node000025_Node000023"><a xlink:title=" ">
<path fill="none" stroke="#63b8ff" d="M202.54,-396.77C242.85,-387.65 302.95,-374.06 346.44,-364.22"/>
<polygon fill="#63b8ff" stroke="#63b8ff" points="346.94,-367.69 355.92,-362.07 345.4,-360.87 346.94,-367.69"/>
</a>
</g>
</g>
<!-- Node26&#45;&gt;Node2 -->
<g id="edge45_Node000026_Node000002" class="edge">
<title>Node26&#45;&gt;Node2</title>
<g id="a_edge45_Node000026_Node000002"><a xlink:title=" ">
<path fill="none" stroke="#63b8ff" d="M265.9,-510.34C247.61,-501.85 220.9,-489.45 200.14,-479.83"/>
<polygon fill="#63b8ff" stroke="#63b8ff" points="201.83,-476.75 191.29,-475.72 198.88,-483.1 201.83,-476.75"/>
</a>
</g>
</g>
<!-- Node26&#45;&gt;Node3 -->
<g id="edge38_Node000026_Node000003" class="edge">
<title>Node26&#45;&gt;Node3</title>
<g id="a_edge38_Node000026_Node000003"><a xlink:title=" ">
<path fill="none" stroke="#63b8ff" d="M215.21,-510.33C169.52,-502.71 115.88,-490.74 99,-474.75 5.28,-385.98 85.84,-204.53 116.42,-144.59"/>
<polygon fill="#63b8ff" stroke="#63b8ff" points="119.43,-146.39 120.95,-135.91 113.22,-143.15 119.43,-146.39"/>
</a>
</g>
</g>
<!-- Node26&#45;&gt;Node8 -->
<g id="edge39_Node000026_Node000008" class="edge">
<title>Node26&#45;&gt;Node8</title>
<g id="a_edge39_Node000026_Node000008"><a xlink:title=" ">
<path fill="none" stroke="#63b8ff" d="M287,-510.62C287,-492.85 287,-454.22 287,-429.93"/>
<polygon fill="#63b8ff" stroke="#63b8ff" points="290.5,-429.94 287,-419.94 283.5,-429.94 290.5,-429.94"/>
</a>
</g>
</g>
<!-- Node27 -->
<g id="Node000027" class="node">
<title>Node27</title>
<g id="a_Node000027"><a xlink:href="observable_8h.html" target="_top" xlink:title=" ">
<polygon fill="white" stroke="#666666" points="462.12,-418 347.88,-418 347.88,-397.25 462.12,-397.25 462.12,-418"/>
<text xml:space="preserve" text-anchor="middle" x="405" y="-402.6" font-family="Helvetica,sans-Serif" font-size="12.00">apfel/observable.h</text>
</a>
</g>
</g>
<!-- Node26&#45;&gt;Node27 -->
<g id="edge40_Node000026_Node000027" class="edge">
<title>Node26&#45;&gt;Node27</title>
<g id="a_edge40_Node000026_Node000027"><a xlink:title=" ">
<path fill="none" stroke="#63b8ff" d="M297.06,-510.62C316.9,-491.87 361.34,-449.88 386.58,-426.03"/>
<polygon fill="#63b8ff" stroke="#63b8ff" points="388.66,-428.88 393.53,-419.46 383.86,-423.79 388.66,-428.88"/>
</a>
</g>
</g>
<!-- Node28 -->
<g id="Node000028" class="node">
<title>Node28</title>
<g id="a_Node000028"><a xlink:href="disbasis_8h.html" target="_top" xlink:title=" ">
<polygon fill="white" stroke="#666666" points="515.62,-474.75 416.38,-474.75 416.38,-454 515.62,-454 515.62,-474.75"/>
<text xml:space="preserve" text-anchor="middle" x="466" y="-459.35" font-family="Helvetica,sans-Serif" font-size="12.00">apfel/disbasis.h</text>
</a>
</g>
</g>
<!-- Node26&#45;&gt;Node28 -->
<g id="edge43_Node000026_Node000028" class="edge">
<title>Node26&#45;&gt;Node28</title>
<g id="a_edge43_Node000026_Node000028"><a xlink:title=" ">
<path fill="none" stroke="#63b8ff" d="M319,-510.34C348.06,-501.45 391.13,-488.27 423.15,-478.48"/>
<polygon fill="#63b8ff" stroke="#63b8ff" points="423.99,-481.89 432.53,-475.61 421.94,-475.19 423.99,-481.89"/>
</a>
</g>
</g>
<!-- Node27&#45;&gt;Node11 -->
<g id="edge41_Node000027_Node000011" class="edge">
<title>Node27&#45;&gt;Node11</title>
<g id="a_edge41_Node000027_Node000011"><a xlink:title=" ">
<path fill="none" stroke="#63b8ff" d="M385.51,-396.84C368.85,-388.47 344.62,-376.29 325.56,-366.72"/>
<polygon fill="#63b8ff" stroke="#63b8ff" points="327.18,-363.62 316.67,-362.26 324.04,-369.87 327.18,-363.62"/>
</a>
</g>
</g>
<!-- Node27&#45;&gt;Node23 -->
<g id="edge42_Node000027_Node000023" class="edge">
<title>Node27&#45;&gt;Node23</title>
<g id="a_edge42_Node000027_Node000023"><a xlink:title=" ">
<path fill="none" stroke="#63b8ff" d="M404.28,-396.84C403.8,-390.22 403.14,-381.22 402.54,-373.02"/>
<polygon fill="#63b8ff" stroke="#63b8ff" points="406.04,-372.81 401.82,-363.09 399.06,-373.32 406.04,-372.81"/>
</a>
</g>
</g>
<!-- Node28&#45;&gt;Node12 -->
<g id="edge44_Node000028_Node000012" class="edge">
<title>Node28&#45;&gt;Node12</title>
<g id="a_edge44_Node000028_Node000012"><a xlink:title=" ">
<path fill="none" stroke="#63b8ff" d="M467.38,-453.66C468.61,-444.49 470.32,-430.34 471,-418 472.91,-383.26 467.76,-374.41 460,-340.5 458.14,-332.37 455.85,-323.48 453.77,-315.75"/>
<polygon fill="#63b8ff" stroke="#63b8ff" points="457.19,-314.99 451.17,-306.27 450.44,-316.84 457.19,-314.99"/>
</a>
</g>
</g>
</g>
</svg>
