<?xml version="1.0" encoding="UTF-8" standalone="no"?>
<!DOCTYPE svg PUBLIC "-//W3C//DTD SVG 1.1//EN"
 "http://www.w3.org/Graphics/SVG/1.1/DTD/svg11.dtd">
<!-- Generated by graphviz version 15.0.0 (20260523.1842)
 -->
<!-- Title: NLO longitudinally polarised matching conditions from libome Pages: 1 -->
<svg width="473pt" height="54pt"
 viewBox="0.00 0.00 473.00 54.00" xmlns="http://www.w3.org/2000/svg" xmlns:xlink="http://www.w3.org/1999/xlink">
<g id="graph0" class="graph" transform="scale(1 1) rotate(0) translate(4 50.25)">
<title>NLO longitudinally polarised matching conditions from libome</title>
<!-- Node2 -->
<g id="Node000002" class="node">
<title>Node2</title>
<g id="a_Node000002"><a xlink:href="group__NLOMCOME.html" target="_top" xlink:title=" ">
<polygon fill="white" stroke="#666666" points="158.5,-39.88 0,-39.88 0,-6.38 158.5,-6.38 158.5,-39.88"/>
<text xml:space="preserve" text-anchor="start" x="8" y="-24.48" font-family="Helvetica,sans-Serif" font-size="12.00">NLO unpolarised matching</text>
<text xml:space="preserve" text-anchor="middle" x="79.25" y="-11.72" font-family="Helvetica,sans-Serif" font-size="12.00"> conditions from libome</text>
</a>
</g>
</g>
<!-- Node1 -->
<g id="Node000001" class="node">
<title>Node1</title>
<g id="a_Node000001"><a xlink:title=" ">
<polygon fill="#999999" stroke="#666666" points="464.75,-46.25 325.75,-46.25 325.75,0 464.75,0 464.75,-46.25"/>
<text xml:space="preserve" text-anchor="start" x="333.75" y="-30.85" font-family="Helvetica,sans-Serif" font-size="12.00">NLO longitudinally</text>
<text xml:space="preserve" text-anchor="start" x="333.75" y="-18.1" font-family="Helvetica,sans-Serif" font-size="12.00"> polarised matching</text>
<text xml:space="preserve" text-anchor="middle" x="395.25" y="-5.35" font-family="Helvetica,sans-Serif" font-size="12.00"> conditions from libome</text>
</a>
</g>
</g>
<!-- Node2&#45;&gt;Node1 -->
<g id="edge1" class="edge">
<title>Node2&#45;&gt;Node1</title>
<path fill="none" stroke="black" d="M170,-23.12C219.39,-23.12 279.72,-23.12 325.36,-23.12"/>
<polygon fill="black" stroke="black" points="170.19,-19.63 160.19,-23.13 170.19,-26.63 170.19,-19.63"/>
</g>
<!-- Node1&#45;&gt;Node2 -->
<g id="edge2" class="edge">
<title>Node1&#45;&gt;Node2</title>
<path fill="none" stroke="orange" stroke-dasharray="5,2" d="M325.49,-8.58C319.51,-7.69 313.54,-6.93 307.75,-6.38 249.68,-0.8 234.62,-1.36 176.5,-6.38 170.75,-6.87 164.84,-7.53 158.9,-8.3"/>
<text xml:space="preserve" text-anchor="middle" x="242.12" y="-7.72" font-family="Helvetica,sans-Serif" font-size="12.00">apfel::AS1polHg_L_ome</text>
</g>
</g>
</svg>
