<?xml version="1.0" encoding="UTF-8" standalone="no"?>
<!DOCTYPE svg PUBLIC "-//W3C//DTD SVG 1.1//EN"
 "http://www.w3.org/Graphics/SVG/1.1/DTD/svg11.dtd">
<!-- Generated by graphviz version 15.0.0 (20260523.1842)
 -->
<!-- Title: NLO massive&#45;zero coefficient functions Pages: 1 -->
<svg width="474pt" height="54pt"
 viewBox="0.00 0.00 474.00 54.00" xmlns="http://www.w3.org/2000/svg" xmlns:xlink="http://www.w3.org/1999/xlink">
<g id="graph0" class="graph" transform="scale(1 1) rotate(0) translate(4 50.25)">
<title>NLO massive&#45;zero coefficient functions</title>
<!-- Node2 -->
<g id="Node000002" class="node">
<title>Node2</title>
<g id="a_Node000002"><a xlink:href="group__NCMassiveZero.html" target="_top" xlink:title=" ">
<polygon fill="white" stroke="#666666" points="142.75,-46.25 0,-46.25 0,0 142.75,0 142.75,-46.25"/>
<text xml:space="preserve" text-anchor="start" x="8" y="-30.85" font-family="Helvetica,sans-Serif" font-size="12.00">Massless limit of the</text>
<text xml:space="preserve" text-anchor="start" x="8" y="-18.1" font-family="Helvetica,sans-Serif" font-size="12.00"> massive neutral current</text>
<text xml:space="preserve" text-anchor="middle" x="71.38" y="-5.35" font-family="Helvetica,sans-Serif" font-size="12.00"> coefficient functions</text>
</a>
</g>
</g>
<!-- Node1 -->
<g id="Node000001" class="node">
<title>Node1</title>
<g id="a_Node000001"><a xlink:title=" ">
<polygon fill="#999999" stroke="#666666" points="465.5,-39.88 293.5,-39.88 293.5,-6.38 465.5,-6.38 465.5,-39.88"/>
<text xml:space="preserve" text-anchor="start" x="301.5" y="-24.48" font-family="Helvetica,sans-Serif" font-size="12.00">NLO massive&#45;zero coefficient</text>
<text xml:space="preserve" text-anchor="middle" x="379.5" y="-11.72" font-family="Helvetica,sans-Serif" font-size="12.00"> functions</text>
</a>
</g>
</g>
<!-- Node2&#45;&gt;Node1 -->
<g id="edge1" class="edge">
<title>Node2&#45;&gt;Node1</title>
<path fill="none" stroke="black" d="M154.26,-23.12C197.22,-23.12 249.8,-23.12 293.25,-23.12"/>
<polygon fill="black" stroke="black" points="154.5,-19.63 144.5,-23.13 154.5,-26.63 154.5,-19.63"/>
</g>
<!-- Node1&#45;&gt;Node2 -->
<g id="edge2" class="edge">
<title>Node1&#45;&gt;Node2</title>
<path fill="none" stroke="orange" stroke-dasharray="5,2" d="M293.2,-8.17C287.22,-7.45 281.28,-6.84 275.5,-6.38 224.67,-2.27 211.53,-1.61 160.75,-6.38 155,-6.92 149.06,-7.65 143.12,-8.51"/>
<text xml:space="preserve" text-anchor="middle" x="218.12" y="-7.72" font-family="Helvetica,sans-Serif" font-size="12.00">apfel::Cm022nsNC_c</text>
</g>
</g>
</svg>
