<?xml version="1.0" encoding="UTF-8" standalone="no"?>
<!DOCTYPE svg PUBLIC "-//W3C//DTD SVG 1.1//EN"
 "http://www.w3.org/Graphics/SVG/1.1/DTD/svg11.dtd">
<!-- Generated by graphviz version 15.0.0 (20260523.1842)
 -->
<!-- Title: Graphical Class Hierarchy Pages: 1 -->
<svg width="381pt" height="818pt"
 viewBox="0.00 0.00 381.00 818.00" xmlns="http://www.w3.org/2000/svg" xmlns:xlink="http://www.w3.org/1999/xlink">
<g id="graph0" class="graph" transform="scale(1 1) rotate(0) translate(4 813.75)">
<title>Graphical Class Hierarchy</title>
<!-- Node0 -->
<g id="Node000000" class="node">
<title>Node0</title>
<g id="a_Node000000"><a xlink:href="classapfel_1_1ConvolutionMap.html" target="_top" xlink:title="The ConvolutionMap class encapsulates the set of rules to multiply a sets of operators with a set of ...">
<polygon fill="white" stroke="#666666" points="136,-413.75 0,-413.75 0,-393 136,-393 136,-413.75"/>
<text xml:space="preserve" text-anchor="middle" x="68" y="-398.35" font-family="Helvetica,sans-Serif" font-size="12.00">apfel::ConvolutionMap</text>
</a>
</g>
</g>
<!-- Node1 -->
<g id="Node000001" class="node">
<title>Node1</title>
<g id="a_Node000001"><a xlink:href="classapfel_1_1DISCCBasis.html" target="_top" xlink:title="The DISCCBasis class is a derived of ConvolutionMap specialised for the computation of the CC DIS str...">
<polygon fill="white" stroke="#666666" points="330.5,-809.75 214,-809.75 214,-789 330.5,-789 330.5,-809.75"/>
<text xml:space="preserve" text-anchor="middle" x="272.25" y="-794.35" font-family="Helvetica,sans-Serif" font-size="12.00">apfel::DISCCBasis</text>
</a>
</g>
</g>
<!-- Node0&#45;&gt;Node1 -->
<g id="edge1_Node000000_Node000001" class="edge">
<title>Node0&#45;&gt;Node1</title>
<g id="a_edge1_Node000000_Node000001"><a xlink:title=" ">
<path fill="none" stroke="#63b8ff" d="M71.97,-425.31C82.29,-498.08 118.8,-729.7 172,-779.38 183.31,-789.93 198.57,-795.59 213.73,-798.48"/>
<polygon fill="#63b8ff" stroke="#63b8ff" points="75.45,-424.92 70.61,-415.49 68.52,-425.88 75.45,-424.92"/>
</a>
</g>
</g>
<!-- Node2 -->
<g id="Node000002" class="node">
<title>Node2</title>
<g id="a_Node000002"><a xlink:href="classapfel_1_1DISNCBasis.html" target="_top" xlink:title="The DISNCBasis class is a derived of ConvolutionMap specialised for the computation of the NC DIS str...">
<polygon fill="white" stroke="#666666" points="330.5,-770.75 214,-770.75 214,-750 330.5,-750 330.5,-770.75"/>
<text xml:space="preserve" text-anchor="middle" x="272.25" y="-755.35" font-family="Helvetica,sans-Serif" font-size="12.00">apfel::DISNCBasis</text>
</a>
</g>
</g>
<!-- Node0&#45;&gt;Node2 -->
<g id="edge2_Node000000_Node000002" class="edge">
<title>Node0&#45;&gt;Node2</title>
<g id="a_edge2_Node000000_Node000002"><a xlink:title=" ">
<path fill="none" stroke="#63b8ff" d="M68.56,-425.67C68.67,-486.25 77.84,-655 172,-740.38 183.39,-750.71 198.59,-756.31 213.67,-759.21"/>
<polygon fill="#63b8ff" stroke="#63b8ff" points="72.06,-425.7 68.64,-415.68 65.06,-425.65 72.06,-425.7"/>
</a>
</g>
</g>
<!-- Node3 -->
<g id="Node000003" class="node">
<title>Node3</title>
<g id="a_Node000003"><a xlink:href="classapfel_1_1DiagonalBasis.html" target="_top" xlink:title="The DiagonalBasis class is the simplest derivation of ConvolutionMap meant to essentially perform a s...">
<polygon fill="white" stroke="#666666" points="335.75,-731.75 208.75,-731.75 208.75,-711 335.75,-711 335.75,-731.75"/>
<text xml:space="preserve" text-anchor="middle" x="272.25" y="-716.35" font-family="Helvetica,sans-Serif" font-size="12.00">apfel::DiagonalBasis</text>
</a>
</g>
</g>
<!-- Node0&#45;&gt;Node3 -->
<g id="edge3_Node000000_Node000003" class="edge">
<title>Node0&#45;&gt;Node3</title>
<g id="a_edge3_Node000000_Node000003"><a xlink:title=" ">
<path fill="none" stroke="#63b8ff" d="M69.58,-425.33C72.29,-480.81 87.51,-627.5 172,-701.38 182.19,-710.28 195.23,-715.64 208.48,-718.78"/>
<polygon fill="#63b8ff" stroke="#63b8ff" points="73.08,-425.47 69.2,-415.61 66.09,-425.74 73.08,-425.47"/>
</a>
</g>
</g>
<!-- Node4 -->
<g id="Node000004" class="node">
<title>Node4</title>
<g id="a_Node000004"><a xlink:href="classapfel_1_1EvolBasisPlusMinus.html" target="_top" xlink:title="The EvolBasisPlusMinus class is derives from ConvolutionMap and implements a basis in which plus (q+q...">
<polygon fill="white" stroke="#666666" points="351.5,-692.75 193,-692.75 193,-672 351.5,-672 351.5,-692.75"/>
<text xml:space="preserve" text-anchor="middle" x="272.25" y="-677.35" font-family="Helvetica,sans-Serif" font-size="12.00">apfel::EvolBasisPlusMinus</text>
</a>
</g>
</g>
<!-- Node0&#45;&gt;Node4 -->
<g id="edge4_Node000000_Node000004" class="edge">
<title>Node0&#45;&gt;Node4</title>
<g id="a_edge4_Node000000_Node000004"><a xlink:title=" ">
<path fill="none" stroke="#63b8ff" d="M70.88,-425.47C76.42,-475.92 97.33,-600.04 172,-662.38 178.21,-667.56 185.39,-671.52 192.99,-674.54"/>
<polygon fill="#63b8ff" stroke="#63b8ff" points="74.37,-425.17 69.91,-415.56 67.4,-425.86 74.37,-425.17"/>
</a>
</g>
</g>
<!-- Node5 -->
<g id="Node000005" class="node">
<title>Node5</title>
<g id="a_Node000005"><a xlink:href="classapfel_1_1EvolutionBasisQCD.html" target="_top" xlink:title="The EvolutionBasisQCD class is a derived of ConvolutionMap specialised for the DGLAP evolution of dis...">
<polygon fill="white" stroke="#666666" points="350,-653.75 194.5,-653.75 194.5,-633 350,-633 350,-653.75"/>
<text xml:space="preserve" text-anchor="middle" x="272.25" y="-638.35" font-family="Helvetica,sans-Serif" font-size="12.00">apfel::EvolutionBasisQCD</text>
</a>
</g>
</g>
<!-- Node0&#45;&gt;Node5 -->
<g id="edge5_Node000000_Node000005" class="edge">
<title>Node0&#45;&gt;Node5</title>
<g id="a_edge5_Node000000_Node000005"><a xlink:title=" ">
<path fill="none" stroke="#63b8ff" d="M72.6,-425.48C81.13,-470.37 106.96,-572.28 172,-623.38 178.57,-628.53 186.11,-632.47 194.05,-635.45"/>
<polygon fill="#63b8ff" stroke="#63b8ff" points="76.05,-424.91 70.86,-415.68 69.16,-426.13 76.05,-424.91"/>
</a>
</g>
</g>
<!-- Node6 -->
<g id="Node000006" class="node">
<title>Node6</title>
<g id="a_Node000006"><a xlink:href="classapfel_1_1EvolutionBasisQCDQED.html" target="_top" xlink:title="The EvolutionBasisQCDQED class is a derived of ConvolutionMap specialised for the DGLAP evolution of ...">
<polygon fill="white" stroke="#666666" points="363.12,-614.75 181.38,-614.75 181.38,-594 363.12,-594 363.12,-614.75"/>
<text xml:space="preserve" text-anchor="middle" x="272.25" y="-599.35" font-family="Helvetica,sans-Serif" font-size="12.00">apfel::EvolutionBasisQCDQED</text>
</a>
</g>
</g>
<!-- Node0&#45;&gt;Node6 -->
<g id="edge6_Node000000_Node000006" class="edge">
<title>Node0&#45;&gt;Node6</title>
<g id="a_edge6_Node000000_Node000006"><a xlink:title=" ">
<path fill="none" stroke="#63b8ff" d="M74.76,-425.17C86.24,-464.05 115.84,-545.07 172,-585.38 176.56,-588.65 181.53,-591.4 186.74,-593.71"/>
<polygon fill="#63b8ff" stroke="#63b8ff" points="78.14,-424.27 72.07,-415.59 71.41,-426.16 78.14,-424.27"/>
</a>
</g>
</g>
<!-- Node7 -->
<g id="Node000007" class="node">
<title>Node7</title>
<g id="a_Node000007"><a xlink:href="classapfel_1_1EvolutionOperatorBasisQCD.html" target="_top" xlink:title="The EvolutionOperatorBasisQCD class is a derived of ConvolutionMap specialised for the DGLAP evolutio...">
<polygon fill="white" stroke="#666666" points="344.75,-576.12 199.75,-576.12 199.75,-542.62 344.75,-542.62 344.75,-576.12"/>
<text xml:space="preserve" text-anchor="start" x="207.75" y="-560.73" font-family="Helvetica,sans-Serif" font-size="12.00">apfel::EvolutionOperator</text>
<text xml:space="preserve" text-anchor="middle" x="272.25" y="-547.98" font-family="Helvetica,sans-Serif" font-size="12.00">BasisQCD</text>
</a>
</g>
</g>
<!-- Node0&#45;&gt;Node7 -->
<g id="edge7_Node000000_Node000007" class="edge">
<title>Node0&#45;&gt;Node7</title>
<g id="a_edge7_Node000000_Node000007"><a xlink:title=" ">
<path fill="none" stroke="#63b8ff" d="M79.6,-423.88C95.64,-452.8 128.82,-505.18 172,-533.38 180.35,-538.83 189.8,-543.14 199.46,-546.55"/>
<polygon fill="#63b8ff" stroke="#63b8ff" points="82.85,-422.52 75.03,-415.38 76.69,-425.84 82.85,-422.52"/>
</a>
</g>
</g>
<!-- Node8 -->
<g id="Node000008" class="node">
<title>Node8</title>
<g id="a_Node000008"><a xlink:href="classapfel_1_1EvolutionOperatorBasisQCDQED.html" target="_top" xlink:title="The EvolutionOperatorBasisQCDQED class is a derived of ConvolutionMap specialised for the DGLAP QCDxQ...">
<polygon fill="white" stroke="#666666" points="344.75,-524.12 199.75,-524.12 199.75,-490.62 344.75,-490.62 344.75,-524.12"/>
<text xml:space="preserve" text-anchor="start" x="207.75" y="-508.73" font-family="Helvetica,sans-Serif" font-size="12.00">apfel::EvolutionOperator</text>
<text xml:space="preserve" text-anchor="middle" x="272.25" y="-495.98" font-family="Helvetica,sans-Serif" font-size="12.00">BasisQCDQED</text>
</a>
</g>
</g>
<!-- Node0&#45;&gt;Node8 -->
<g id="edge8_Node000000_Node000008" class="edge">
<title>Node0&#45;&gt;Node8</title>
<g id="a_edge8_Node000000_Node000008"><a xlink:title=" ">
<path fill="none" stroke="#63b8ff" d="M88.4,-421.82C108.02,-439.53 139.95,-465.81 172,-481.38 180.57,-485.54 189.9,-489.1 199.28,-492.12"/>
<polygon fill="#63b8ff" stroke="#63b8ff" points="90.89,-419.36 81.16,-415.16 86.15,-424.51 90.89,-419.36"/>
</a>
</g>
</g>
<!-- Node9 -->
<g id="Node000009" class="node">
<title>Node9</title>
<g id="a_Node000009"><a xlink:href="classapfel_1_1EvolveDistributionsBasisQCD.html" target="_top" xlink:title="The EvolveDistributionsBasisQCD class is a derived of ConvolutionMap specialised to match a set of ev...">
<polygon fill="white" stroke="#666666" points="348.12,-472.12 196.38,-472.12 196.38,-438.62 348.12,-438.62 348.12,-472.12"/>
<text xml:space="preserve" text-anchor="start" x="204.38" y="-456.73" font-family="Helvetica,sans-Serif" font-size="12.00">apfel::EvolveDistributions</text>
<text xml:space="preserve" text-anchor="middle" x="272.25" y="-443.98" font-family="Helvetica,sans-Serif" font-size="12.00">BasisQCD</text>
</a>
</g>
</g>
<!-- Node0&#45;&gt;Node9 -->
<g id="edge9_Node000000_Node000009" class="edge">
<title>Node0&#45;&gt;Node9</title>
<g id="a_edge9_Node000000_Node000009"><a xlink:title=" ">
<path fill="none" stroke="#63b8ff" d="M121.74,-416.93C146.97,-423.42 177.47,-431.26 204.32,-438.17"/>
<polygon fill="#63b8ff" stroke="#63b8ff" points="122.93,-413.63 112.37,-414.53 121.19,-420.41 122.93,-413.63"/>
</a>
</g>
</g>
<!-- Node10 -->
<g id="Node000010" class="node">
<title>Node10</title>
<g id="a_Node000010"><a xlink:href="classapfel_1_1EvolveDistributionsBasisQCDQED.html" target="_top" xlink:title="The EvolveDistributionsBasisQCDQED class is a derived of ConvolutionMap specialised to match a set of...">
<polygon fill="white" stroke="#666666" points="348.12,-420.12 196.38,-420.12 196.38,-386.62 348.12,-386.62 348.12,-420.12"/>
<text xml:space="preserve" text-anchor="start" x="204.38" y="-404.73" font-family="Helvetica,sans-Serif" font-size="12.00">apfel::EvolveDistributions</text>
<text xml:space="preserve" text-anchor="middle" x="272.25" y="-391.98" font-family="Helvetica,sans-Serif" font-size="12.00">BasisQCDQED</text>
</a>
</g>
</g>
<!-- Node0&#45;&gt;Node10 -->
<g id="edge10_Node000000_Node000010" class="edge">
<title>Node0&#45;&gt;Node10</title>
<g id="a_edge10_Node000000_Node000010"><a xlink:title=" ">
<path fill="none" stroke="#63b8ff" d="M147.78,-403.38C163.7,-403.38 180.39,-403.38 196.18,-403.38"/>
<polygon fill="#63b8ff" stroke="#63b8ff" points="147.86,-399.88 137.86,-403.38 147.86,-406.88 147.86,-399.88"/>
</a>
</g>
</g>
<!-- Node11 -->
<g id="Node000011" class="node">
<title>Node11</title>
<g id="a_Node000011"><a xlink:href="classapfel_1_1MatchingBasisQCD.html" target="_top" xlink:title="The MatchingBasisQCD class is a derived of ConvolutionMap specialised for the matching of distributio...">
<polygon fill="white" stroke="#666666" points="349.25,-368.75 195.25,-368.75 195.25,-348 349.25,-348 349.25,-368.75"/>
<text xml:space="preserve" text-anchor="middle" x="272.25" y="-353.35" font-family="Helvetica,sans-Serif" font-size="12.00">apfel::MatchingBasisQCD</text>
</a>
</g>
</g>
<!-- Node0&#45;&gt;Node11 -->
<g id="edge11_Node000000_Node000011" class="edge">
<title>Node0&#45;&gt;Node11</title>
<g id="a_edge11_Node000000_Node000011"><a xlink:title=" ">
<path fill="none" stroke="#63b8ff" d="M120.5,-389.75C136.91,-385.58 155.18,-381.11 172,-377.38 184.76,-374.55 198.5,-371.75 211.57,-369.22"/>
<polygon fill="#63b8ff" stroke="#63b8ff" points="119.76,-386.33 110.94,-392.2 121.5,-393.11 119.76,-386.33"/>
</a>
</g>
</g>
<!-- Node12 -->
<g id="Node000012" class="node">
<title>Node12</title>
<g id="a_Node000012"><a xlink:href="classapfel_1_1MatchingBasisQCDQED.html" target="_top" xlink:title="The MatchingBasisQCDQED class is a derived of ConvolutionMap specialised for the matching of distribu...">
<polygon fill="white" stroke="#666666" points="362.38,-329.75 182.12,-329.75 182.12,-309 362.38,-309 362.38,-329.75"/>
<text xml:space="preserve" text-anchor="middle" x="272.25" y="-314.35" font-family="Helvetica,sans-Serif" font-size="12.00">apfel::MatchingBasisQCDQED</text>
</a>
</g>
</g>
<!-- Node0&#45;&gt;Node12 -->
<g id="edge12_Node000000_Node000012" class="edge">
<title>Node0&#45;&gt;Node12</title>
<g id="a_edge12_Node000000_Node000012"><a xlink:title=" ">
<path fill="none" stroke="#63b8ff" d="M92.03,-385.69C112.1,-371.13 142.53,-351.06 172,-339.38 181.23,-335.72 191.22,-332.7 201.19,-330.21"/>
<polygon fill="#63b8ff" stroke="#63b8ff" points="89.97,-382.87 84.01,-391.63 94.13,-388.49 89.97,-382.87"/>
</a>
</g>
</g>
<!-- Node13 -->
<g id="Node000013" class="node">
<title>Node13</title>
<g id="a_Node000013"><a xlink:href="classapfel_1_1MatchingOperatorBasisQCD.html" target="_top" xlink:title="The MatchingOperatorBasisQCD class is a derived of ConvolutionMap specialised for the matching of the...">
<polygon fill="white" stroke="#666666" points="372.5,-290.75 172,-290.75 172,-270 372.5,-270 372.5,-290.75"/>
<text xml:space="preserve" text-anchor="middle" x="272.25" y="-275.35" font-family="Helvetica,sans-Serif" font-size="12.00">apfel::MatchingOperatorBasisQCD</text>
</a>
</g>
</g>
<!-- Node0&#45;&gt;Node13 -->
<g id="edge13_Node000000_Node000013" class="edge">
<title>Node0&#45;&gt;Node13</title>
<g id="a_edge13_Node000000_Node000013"><a xlink:title=" ">
<path fill="none" stroke="#63b8ff" d="M83.04,-383.45C100.88,-359.73 133.97,-320.76 172,-300.38 178.89,-296.68 186.39,-293.66 194.07,-291.2"/>
<polygon fill="#63b8ff" stroke="#63b8ff" points="80.33,-381.23 77.25,-391.36 85.98,-385.36 80.33,-381.23"/>
</a>
</g>
</g>
<!-- Node14 -->
<g id="Node000014" class="node">
<title>Node14</title>
<g id="a_Node000014"><a xlink:href="classapfel_1_1MatchingOperatorBasisQCDQED.html" target="_top" xlink:title="The MatchingOperatorBasisQCDQED class is a derived of ConvolutionMap specialised for the matching of ...">
<polygon fill="white" stroke="#666666" points="359,-252.12 185.5,-252.12 185.5,-218.62 359,-218.62 359,-252.12"/>
<text xml:space="preserve" text-anchor="start" x="193.5" y="-236.72" font-family="Helvetica,sans-Serif" font-size="12.00">apfel::MatchingOperatorBasis</text>
<text xml:space="preserve" text-anchor="middle" x="272.25" y="-223.97" font-family="Helvetica,sans-Serif" font-size="12.00">QCDQED</text>
</a>
</g>
</g>
<!-- Node0&#45;&gt;Node14 -->
<g id="edge14_Node000000_Node000014" class="edge">
<title>Node0&#45;&gt;Node14</title>
<g id="a_edge14_Node000000_Node000014"><a xlink:title=" ">
<path fill="none" stroke="#63b8ff" d="M78.45,-382.32C93.6,-351.03 126.32,-292.61 172,-261.38 177,-257.96 182.42,-254.99 188.07,-252.41"/>
<polygon fill="#63b8ff" stroke="#63b8ff" points="75.39,-380.61 74.32,-391.15 81.73,-383.58 75.39,-380.61"/>
</a>
</g>
</g>
<!-- Node15 -->
<g id="Node000015" class="node">
<title>Node15</title>
<g id="a_Node000015"><a xlink:href="classapfel_1_1PhysicalBasisQCD.html" target="_top" xlink:title="The PhysicalBasisQCD class is a derived of ConvolutionMap specialised for the DGLAP evolution of dist...">
<polygon fill="white" stroke="#666666" points="347.75,-200.75 196.75,-200.75 196.75,-180 347.75,-180 347.75,-200.75"/>
<text xml:space="preserve" text-anchor="middle" x="272.25" y="-185.35" font-family="Helvetica,sans-Serif" font-size="12.00">apfel::PhysicalBasisQCD</text>
</a>
</g>
</g>
<!-- Node0&#45;&gt;Node15 -->
<g id="edge15_Node000000_Node000015" class="edge">
<title>Node0&#45;&gt;Node15</title>
<g id="a_edge15_Node000000_Node000015"><a xlink:title=" ">
<path fill="none" stroke="#63b8ff" d="M73.88,-381.87C84.31,-341.18 112.78,-253.09 172,-209.38 179.27,-204.01 187.63,-200.03 196.35,-197.1"/>
<polygon fill="#63b8ff" stroke="#63b8ff" points="70.52,-380.86 71.57,-391.41 77.33,-382.51 70.52,-380.86"/>
</a>
</g>
</g>
<!-- Node16 -->
<g id="Node000016" class="node">
<title>Node16</title>
<g id="a_Node000016"><a xlink:href="classapfel_1_1PhysicalEvolveDistributionsBasisQCD.html" target="_top" xlink:title="The PhysicalEvolveDistributionsBasisQCD class is a derived of ConvolutionMap specialised to match a s...">
<polygon fill="white" stroke="#666666" points="371,-162.12 173.5,-162.12 173.5,-128.62 371,-128.62 371,-162.12"/>
<text xml:space="preserve" text-anchor="start" x="181.5" y="-146.72" font-family="Helvetica,sans-Serif" font-size="12.00">apfel::PhysicalEvolveDistributions</text>
<text xml:space="preserve" text-anchor="middle" x="272.25" y="-133.97" font-family="Helvetica,sans-Serif" font-size="12.00">BasisQCD</text>
</a>
</g>
</g>
<!-- Node0&#45;&gt;Node16 -->
<g id="edge16_Node000000_Node000016" class="edge">
<title>Node0&#45;&gt;Node16</title>
<g id="a_edge16_Node000000_Node000016"><a xlink:title=" ">
<path fill="none" stroke="#63b8ff" d="M72.3,-381.35C80.41,-335.16 105.71,-227.73 172,-171.38 175.94,-168.03 180.25,-165.11 184.82,-162.56"/>
<polygon fill="#63b8ff" stroke="#63b8ff" points="68.85,-380.74 70.69,-391.17 75.76,-381.87 68.85,-380.74"/>
</a>
</g>
</g>
<!-- Node17 -->
<g id="Node000017" class="node">
<title>Node17</title>
<g id="a_Node000017"><a xlink:href="classapfel_1_1PhysicalMatchingBasisQCD.html" target="_top" xlink:title="The PhysicalMatchingBasisQCD class is a derived of ConvolutionMap specialised for the matching of dis...">
<polygon fill="white" stroke="#666666" points="372.12,-110.75 172.38,-110.75 172.38,-90 372.12,-90 372.12,-110.75"/>
<text xml:space="preserve" text-anchor="middle" x="272.25" y="-95.35" font-family="Helvetica,sans-Serif" font-size="12.00">apfel::PhysicalMatchingBasisQCD</text>
</a>
</g>
</g>
<!-- Node0&#45;&gt;Node17 -->
<g id="edge17_Node000000_Node000017" class="edge">
<title>Node0&#45;&gt;Node17</title>
<g id="a_edge17_Node000000_Node000017"><a xlink:title=" ">
<path fill="none" stroke="#63b8ff" d="M69.96,-381.31C73.57,-327.47 90.71,-188.68 172,-119.38 175.74,-116.19 179.85,-113.47 184.2,-111.16"/>
<polygon fill="#63b8ff" stroke="#63b8ff" points="66.48,-380.85 69.41,-391.04 73.47,-381.25 66.48,-380.85"/>
</a>
</g>
</g>
<!-- Node18 -->
<g id="Node000018" class="node">
<title>Node18</title>
<g id="a_Node000018"><a xlink:href="classapfel_1_1PhysicalMatchingOperatorBasisQCD.html" target="_top" xlink:title="The MatchingOperatorBasisQCD class is a derived of ConvolutionMap specialised for the matching of the...">
<polygon fill="white" stroke="#666666" points="366.88,-72.12 177.62,-72.12 177.62,-38.62 366.88,-38.62 366.88,-72.12"/>
<text xml:space="preserve" text-anchor="start" x="185.62" y="-56.73" font-family="Helvetica,sans-Serif" font-size="12.00">apfel::PhysicalMatchingOperator</text>
<text xml:space="preserve" text-anchor="middle" x="272.25" y="-43.98" font-family="Helvetica,sans-Serif" font-size="12.00">BasisQCD</text>
</a>
</g>
</g>
<!-- Node0&#45;&gt;Node18 -->
<g id="edge18_Node000000_Node000018" class="edge">
<title>Node0&#45;&gt;Node18</title>
<g id="a_edge18_Node000000_Node000018"><a xlink:title=" ">
<path fill="none" stroke="#63b8ff" d="M69.2,-381.17C70.98,-322.97 84.09,-164.72 172,-81.38 175.62,-77.94 179.63,-74.95 183.92,-72.34"/>
<polygon fill="#63b8ff" stroke="#63b8ff" points="65.7,-381 69,-391.07 72.7,-381.15 65.7,-381"/>
</a>
</g>
</g>
<!-- Node19 -->
<g id="Node000019" class="node">
<title>Node19</title>
<g id="a_Node000019"><a xlink:href="classapfel_1_1PhysicalOperatorBasisQCD.html" target="_top" xlink:title="The PhysicalOperatorBasisQCD class is a derived of ConvolutionMap specialised for the DGLAP evolution...">
<polygon fill="white" stroke="#666666" points="371,-20.75 173.5,-20.75 173.5,0 371,0 371,-20.75"/>
<text xml:space="preserve" text-anchor="middle" x="272.25" y="-5.35" font-family="Helvetica,sans-Serif" font-size="12.00">apfel::PhysicalOperatorBasisQCD</text>
</a>
</g>
</g>
<!-- Node0&#45;&gt;Node19 -->
<g id="edge19_Node000000_Node000019" class="edge">
<title>Node0&#45;&gt;Node19</title>
<g id="a_edge19_Node000000_Node000019"><a xlink:title=" ">
<path fill="none" stroke="#63b8ff" d="M71.97,-381.53C82.28,-309.09 118.79,-78.51 172,-29.38 175.48,-26.16 179.33,-23.41 183.43,-21.07"/>
<polygon fill="#63b8ff" stroke="#63b8ff" points="68.53,-380.91 70.61,-391.3 75.46,-381.88 68.53,-380.91"/>
</a>
</g>
</g>
</g>
</svg>
