<?xml version="1.0" encoding="UTF-8" standalone="no"?>
<!DOCTYPE svg PUBLIC "-//W3C//DTD SVG 1.1//EN"
 "http://www.w3.org/Graphics/SVG/1.1/DTD/svg11.dtd">
<!-- Generated by graphviz version 15.0.0 (20260523.1842)
 -->
<!-- Title: Graphical Class Hierarchy Pages: 1 -->
<svg width="359pt" height="224pt"
 viewBox="0.00 0.00 359.00 224.00" xmlns="http://www.w3.org/2000/svg" xmlns:xlink="http://www.w3.org/1999/xlink">
<g id="graph0" class="graph" transform="scale(1 1) rotate(0) translate(4 219.75)">
<title>Graphical Class Hierarchy</title>
<!-- Node0 -->
<g id="Node000000" class="node">
<title>Node0</title>
<g id="a_Node000000"><a xlink:href="classapfel_1_1MatchedEvolution.html" target="_top" xlink:title=" ">
<polygon fill="white" stroke="#666666" points="144.25,-124.12 0,-124.12 0,-90.62 144.25,-90.62 144.25,-124.12"/>
<text xml:space="preserve" text-anchor="start" x="8" y="-108.72" font-family="Helvetica,sans-Serif" font-size="12.00">apfel::MatchedEvolution</text>
<text xml:space="preserve" text-anchor="middle" x="72.12" y="-95.97" font-family="Helvetica,sans-Serif" font-size="12.00">&lt; double &gt;</text>
</a>
</g>
</g>
<!-- Node1 -->
<g id="Node000001" class="node">
<title>Node1</title>
<g id="a_Node000001"><a xlink:href="classapfel_1_1AlphaQCD.html" target="_top" xlink:title="The AlphaQCD is a specialization class of the MatchedEvolution class for the computation of the QCD c...">
<polygon fill="white" stroke="#666666" points="318.88,-215.75 212.12,-215.75 212.12,-195 318.88,-195 318.88,-215.75"/>
<text xml:space="preserve" text-anchor="middle" x="265.5" y="-200.35" font-family="Helvetica,sans-Serif" font-size="12.00">apfel::AlphaQCD</text>
</a>
</g>
</g>
<!-- Node0&#45;&gt;Node1 -->
<g id="edge544_Node000000_Node000001" class="edge">
<title>Node0&#45;&gt;Node1</title>
<g id="a_edge544_Node000000_Node000001"><a xlink:title=" ">
<path fill="none" stroke="#63b8ff" d="M100.28,-131.88C120.86,-149.22 150.57,-171.72 180.25,-185.38 190.08,-189.9 201.05,-193.46 211.73,-196.24"/>
<polygon fill="#63b8ff" stroke="#63b8ff" points="102.79,-129.42 92.93,-125.56 98.23,-134.73 102.79,-129.42"/>
</a>
</g>
</g>
<!-- Node2 -->
<g id="Node000002" class="node">
<title>Node2</title>
<g id="a_Node000002"><a xlink:href="classapfel_1_1AlphaQCDMSbarMass.html" target="_top" xlink:title="The AlphaQCDMSbarMass is a specialization class of the MatchedEvolution class for the computation of ...">
<polygon fill="white" stroke="#666666" points="350.75,-176.75 180.25,-176.75 180.25,-156 350.75,-156 350.75,-176.75"/>
<text xml:space="preserve" text-anchor="middle" x="265.5" y="-161.35" font-family="Helvetica,sans-Serif" font-size="12.00">apfel::AlphaQCDMSbarMass</text>
</a>
</g>
</g>
<!-- Node0&#45;&gt;Node2 -->
<g id="edge545_Node000000_Node000002" class="edge">
<title>Node0&#45;&gt;Node2</title>
<g id="a_edge545_Node000000_Node000002"><a xlink:title=" ">
<path fill="none" stroke="#63b8ff" d="M127.51,-128.56C144.28,-134.72 162.91,-141.18 180.25,-146.38 191.34,-149.7 203.38,-152.83 214.79,-155.59"/>
<polygon fill="#63b8ff" stroke="#63b8ff" points="128.79,-125.3 118.2,-125.1 126.35,-131.86 128.79,-125.3"/>
</a>
</g>
</g>
<!-- Node3 -->
<g id="Node000003" class="node">
<title>Node3</title>
<g id="a_Node000003"><a xlink:href="classapfel_1_1AlphaQCDg.html" target="_top" xlink:title="The AlphaQCDg is a specialization class of the MatchedEvolution class for the computation of the QCD ...">
<polygon fill="white" stroke="#666666" points="322.25,-137.75 208.75,-137.75 208.75,-117 322.25,-117 322.25,-137.75"/>
<text xml:space="preserve" text-anchor="middle" x="265.5" y="-122.35" font-family="Helvetica,sans-Serif" font-size="12.00">apfel::AlphaQCDg</text>
</a>
</g>
</g>
<!-- Node0&#45;&gt;Node3 -->
<g id="edge546_Node000000_Node000003" class="edge">
<title>Node0&#45;&gt;Node3</title>
<g id="a_edge546_Node000000_Node000003"><a xlink:title=" ">
<path fill="none" stroke="#63b8ff" d="M155.87,-116.02C173.57,-117.87 191.87,-119.78 208.28,-121.5"/>
<polygon fill="#63b8ff" stroke="#63b8ff" points="156.47,-112.57 146.16,-115.01 155.75,-119.53 156.47,-112.57"/>
</a>
</g>
</g>
<!-- Node4 -->
<g id="Node000004" class="node">
<title>Node4</title>
<g id="a_Node000004"><a xlink:href="classapfel_1_1AlphaQCDxi.html" target="_top" xlink:title="The AlphaQCDxi is a specialization class of the MatchedEvolution class for the computation of the QCD...">
<polygon fill="white" stroke="#666666" points="323.38,-98.75 207.62,-98.75 207.62,-78 323.38,-78 323.38,-98.75"/>
<text xml:space="preserve" text-anchor="middle" x="265.5" y="-83.35" font-family="Helvetica,sans-Serif" font-size="12.00">apfel::AlphaQCDxi</text>
</a>
</g>
</g>
<!-- Node0&#45;&gt;Node4 -->
<g id="edge547_Node000000_Node000004" class="edge">
<title>Node0&#45;&gt;Node4</title>
<g id="a_edge547_Node000000_Node000004"><a xlink:title=" ">
<path fill="none" stroke="#63b8ff" d="M155.95,-99.15C173.3,-97.43 191.22,-95.65 207.38,-94.05"/>
<polygon fill="#63b8ff" stroke="#63b8ff" points="155.77,-95.65 146.16,-100.12 156.46,-102.62 155.77,-95.65"/>
</a>
</g>
</g>
<!-- Node5 -->
<g id="Node000005" class="node">
<title>Node5</title>
<g id="a_Node000005"><a xlink:href="classapfel_1_1AlphaQED.html" target="_top" xlink:title="The AlphaQED is a specialization class of the MatchedEvolution class for the computation of the QED c...">
<polygon fill="white" stroke="#666666" points="318.5,-59.75 212.5,-59.75 212.5,-39 318.5,-39 318.5,-59.75"/>
<text xml:space="preserve" text-anchor="middle" x="265.5" y="-44.35" font-family="Helvetica,sans-Serif" font-size="12.00">apfel::AlphaQED</text>
</a>
</g>
</g>
<!-- Node0&#45;&gt;Node5 -->
<g id="edge548_Node000000_Node000005" class="edge">
<title>Node0&#45;&gt;Node5</title>
<g id="a_edge548_Node000000_Node000005"><a xlink:title=" ">
<path fill="none" stroke="#63b8ff" d="M128.68,-86.39C145.16,-80.51 163.33,-74.37 180.25,-69.38 191.35,-66.1 203.4,-62.98 214.81,-60.23"/>
<polygon fill="#63b8ff" stroke="#63b8ff" points="127.76,-83 119.54,-89.68 130.14,-89.58 127.76,-83"/>
</a>
</g>
</g>
<!-- Node6 -->
<g id="Node000006" class="node">
<title>Node6</title>
<g id="a_Node000006"><a xlink:href="classapfel_1_1MSbarMass.html" target="_top" xlink:title="The MSbarMass is a specialization class of the MatchedEvolution class for the evolution of masses ren...">
<polygon fill="white" stroke="#666666" points="321.5,-20.75 209.5,-20.75 209.5,0 321.5,0 321.5,-20.75"/>
<text xml:space="preserve" text-anchor="middle" x="265.5" y="-5.35" font-family="Helvetica,sans-Serif" font-size="12.00">apfel::MSbarMass</text>
</a>
</g>
</g>
<!-- Node0&#45;&gt;Node6 -->
<g id="edge549_Node000000_Node000006" class="edge">
<title>Node0&#45;&gt;Node6</title>
<g id="a_edge549_Node000000_Node000006"><a xlink:title=" ">
<path fill="none" stroke="#63b8ff" d="M100.34,-83.2C120.94,-66.09 150.66,-43.88 180.25,-30.38 189.28,-26.26 199.25,-22.93 209.08,-20.26"/>
<polygon fill="#63b8ff" stroke="#63b8ff" points="98.34,-80.3 92.97,-89.43 102.87,-85.64 98.34,-80.3"/>
</a>
</g>
</g>
</g>
</svg>
