<?xml version="1.0" encoding="UTF-8" standalone="no"?>
<!DOCTYPE svg PUBLIC "-//W3C//DTD SVG 1.1//EN"
 "http://www.w3.org/Graphics/SVG/1.1/DTD/svg11.dtd">
<!-- Generated by graphviz version 15.0.0 (20260523.1842)
 -->
<!-- Title: /Users/vb262523/Codes/apfelxx/inc/apfel/lhtoypdfs.h Pages: 1 -->
<svg width="326pt" height="250pt"
 viewBox="0.00 0.00 326.00 250.00" xmlns="http://www.w3.org/2000/svg" xmlns:xlink="http://www.w3.org/1999/xlink">
<g id="graph0" class="graph" transform="scale(1 1) rotate(0) translate(4 246)">
<title>/Users/vb262523/Codes/apfelxx/inc/apfel/lhtoypdfs.h</title>
<!-- Node1 -->
<g id="Node000001" class="node">
<title>Node1</title>
<g id="a_Node000001"><a xlink:title=" ">
<polygon fill="#999999" stroke="#666666" points="186.12,-242 20.12,-242 20.12,-208.5 186.12,-208.5 186.12,-242"/>
<text xml:space="preserve" text-anchor="start" x="28.12" y="-226.6" font-family="Helvetica,sans-Serif" font-size="12.00">/Users/vb262523/Codes</text>
<text xml:space="preserve" text-anchor="middle" x="103.12" y="-213.85" font-family="Helvetica,sans-Serif" font-size="12.00">/apfelxx/inc/apfel/lhtoypdfs.h</text>
</a>
</g>
</g>
<!-- Node2 -->
<g id="Node000002" class="node">
<title>Node2</title>
<g id="a_Node000002"><a xlink:href="apfelxx_8h.html" target="_top" xlink:title=" ">
<polygon fill="white" stroke="#666666" points="156.25,-33.5 0,-33.5 0,0 156.25,0 156.25,-33.5"/>
<text xml:space="preserve" text-anchor="start" x="8" y="-18.1" font-family="Helvetica,sans-Serif" font-size="12.00">/Users/vb262523/Codes</text>
<text xml:space="preserve" text-anchor="middle" x="78.12" y="-5.35" font-family="Helvetica,sans-Serif" font-size="12.00">/apfelxx/inc/apfel/apfelxx.h</text>
</a>
</g>
</g>
<!-- Node1&#45;&gt;Node2 -->
<g id="edge1_Node000001_Node000002" class="edge">
<title>Node1&#45;&gt;Node2</title>
<g id="a_edge1_Node000001_Node000002"><a xlink:title=" ">
<path fill="none" stroke="#63b8ff" d="M76.26,-199.78C69.33,-191.83 62.79,-182.47 59.12,-172.5 41.38,-124.23 60.44,-62.37 71.45,-33.68"/>
<polygon fill="#63b8ff" stroke="#63b8ff" points="73.67,-202.14 83.08,-207.01 78.76,-197.33 73.67,-202.14"/>
</a>
</g>
</g>
<!-- Node3 -->
<g id="Node000003" class="node">
<title>Node3</title>
<g id="a_Node000003"><a xlink:href="evolutionsetup_8h.html" target="_top" xlink:title=" ">
<polygon fill="white" stroke="#666666" points="264.12,-172.5 68.12,-172.5 68.12,-139 264.12,-139 264.12,-172.5"/>
<text xml:space="preserve" text-anchor="start" x="76.12" y="-157.1" font-family="Helvetica,sans-Serif" font-size="12.00">/Users/vb262523/Codes</text>
<text xml:space="preserve" text-anchor="middle" x="166.12" y="-144.35" font-family="Helvetica,sans-Serif" font-size="12.00">/apfelxx/inc/apfel/evolutionsetup.h</text>
</a>
</g>
</g>
<!-- Node1&#45;&gt;Node3 -->
<g id="edge2_Node000001_Node000003" class="edge">
<title>Node1&#45;&gt;Node3</title>
<g id="a_edge2_Node000001_Node000003"><a xlink:title=" ">
<path fill="none" stroke="#63b8ff" d="M125.81,-199.94C134.3,-190.85 143.71,-180.77 151.3,-172.63"/>
<polygon fill="#63b8ff" stroke="#63b8ff" points="123.35,-197.45 119.09,-207.15 128.47,-202.22 123.35,-197.45"/>
</a>
</g>
</g>
<!-- Node3&#45;&gt;Node2 -->
<g id="edge3_Node000003_Node000002" class="edge">
<title>Node3&#45;&gt;Node2</title>
<g id="a_edge3_Node000003_Node000002"><a xlink:title=" ">
<path fill="none" stroke="#63b8ff" d="M127.04,-132.15C116.25,-124.2 105.49,-114.36 98.12,-103 84.31,-81.7 80.01,-51.91 78.69,-33.77"/>
<polygon fill="#63b8ff" stroke="#63b8ff" points="124.99,-134.99 135.21,-137.79 128.97,-129.23 124.99,-134.99"/>
</a>
</g>
</g>
<!-- Node4 -->
<g id="Node000004" class="node">
<title>Node4</title>
<g id="a_Node000004"><a xlink:href="initialiseevolution_8h.html" target="_top" xlink:title=" ">
<polygon fill="white" stroke="#666666" points="317.62,-103 106.62,-103 106.62,-69.5 317.62,-69.5 317.62,-103"/>
<text xml:space="preserve" text-anchor="start" x="114.62" y="-87.6" font-family="Helvetica,sans-Serif" font-size="12.00">/Users/vb262523/Codes</text>
<text xml:space="preserve" text-anchor="middle" x="212.12" y="-74.85" font-family="Helvetica,sans-Serif" font-size="12.00">/apfelxx/inc/apfel/initialiseevolution.h</text>
</a>
</g>
</g>
<!-- Node3&#45;&gt;Node4 -->
<g id="edge4_Node000003_Node000004" class="edge">
<title>Node3&#45;&gt;Node4</title>
<g id="a_edge4_Node000003_Node000004"><a xlink:title=" ">
<path fill="none" stroke="#63b8ff" d="M183.46,-129.31C189.45,-120.52 195.99,-110.93 201.3,-103.13"/>
<polygon fill="#63b8ff" stroke="#63b8ff" points="180.62,-127.27 177.88,-137.5 186.4,-131.21 180.62,-127.27"/>
</a>
</g>
</g>
<!-- Node4&#45;&gt;Node2 -->
<g id="edge5_Node000004_Node000002" class="edge">
<title>Node4&#45;&gt;Node2</title>
<g id="a_edge5_Node000004_Node000002"><a xlink:title=" ">
<path fill="none" stroke="#63b8ff" d="M169.93,-63.99C150.53,-54.22 127.9,-42.82 109.96,-33.79"/>
<polygon fill="#63b8ff" stroke="#63b8ff" points="168.17,-67.03 178.68,-68.4 171.32,-60.78 168.17,-67.03"/>
</a>
</g>
</g>
</g>
</svg>
